<svg xmlns="http://www.w3.org/2000/svg" xmlns:xlink="http://www.w3.org/1999/xlink" width="116.49" height="30.32" viewBox="0 0 116.49 30.32"><defs><clipPath id="a"><path d="M1.027 0H90v29.656H1.027Zm0 0"/></clipPath><clipPath id="b"><path d="M1.027 0H73v29.656H1.027Zm0 0"/></clipPath><clipPath id="d"><path d="M90 1h24.965v25H90Zm0 0"/></clipPath><clipPath id="e"><path d="M82 0h32.965v29.656H82Zm0 0"/></clipPath><clipPath id="h"><path d="M36 11h64v18.656H36Zm0 0"/></clipPath><path id="c" d="M6.984 0v-.297h-.171c-.579 0-.72-.078-.829-.39L3.875-6.781c-.047-.125-.062-.203-.219-.203-.156 0-.187.062-.234.203L1.406-.953c-.172.5-.562.64-1.093.656V0l1-.031L2.422 0v-.297c-.485 0-.719-.25-.719-.5 0-.031 0-.125.016-.156l.453-1.266h2.406l.516 1.485c0 .046.031.093.031.14 0 .297-.547.297-.812.297V0c.343-.031 1.03-.031 1.406-.031ZM4.47-2.531H2.266l1.093-3.156Zm0 0"/><path id="f" d="M6.344-1.781c0-.844-.797-1.578-1.875-1.703.937-.188 1.61-.813 1.61-1.532 0-.843-.891-1.64-2.157-1.64H.344v.297h.234c.75 0 .781.109.781.453v5.14c0 .36-.03.47-.78.47H.343V0h3.828c1.297 0 2.172-.875 2.172-1.781M5.14-5.016c0 .625-.485 1.454-1.563 1.454H2.172V-5.97c0-.312.015-.39.469-.39h1.203c.953 0 1.297.828 1.297 1.343m.234 3.22c0 .687-.516 1.5-1.516 1.5H2.641c-.453 0-.47-.079-.47-.391V-3.36H4c.969 0 1.375.906 1.375 1.562m0 0"/><path id="g" d="M3.64-3.687c-.171-.36-.468-.626-.906-.626-1.14 0-2.343 1.438-2.343 2.86C.39-.531.92.109 1.688.109c.187 0 .687-.046 1.265-.734a.895.895 0 0 0 .89.734c.345 0 .563-.218.72-.53.171-.36.296-.954.296-.97 0-.093-.093-.093-.125-.093-.093 0-.109.03-.125.172-.171.625-.343 1.203-.75 1.203-.265 0-.296-.25-.296-.453s.03-.282.124-.72c.11-.405.141-.5.22-.874l.359-1.36c.062-.28.062-.296.062-.328 0-.172-.11-.265-.281-.265-.234 0-.375.203-.406.422M3-1.158c-.047.173-.047.188-.187.36-.438.531-.829.688-1.11.688-.484 0-.625-.532-.625-.922 0-.485.313-1.672.547-2.125.297-.578.734-.938 1.125-.938.64 0 .766.797.766.86s-.016.109-.032.156Zm0 0"/><path id="i" d="M1.375-2.219c.328.14.61.14.844.14.25 0 .781 0 .781-.296 0-.234-.344-.266-.703-.266-.203 0-.547.016-.906.188C1.156-2.578 1-2.766 1-3.016c0-.609.953-.953 1.828-.953.156 0 .5 0 .89.281.11.063.126.094.204.094.125 0 .265-.125.265-.265 0-.188-.593-.563-1.265-.563-1.125 0-2.172.656-2.172 1.406 0 .407.36.657.39.688-.577.312-.89.86-.89 1.312C.25-.375.813.22 1.844.22c1.281 0 1.828-.86 1.828-1.016 0-.047-.047-.094-.11-.094-.046 0-.078.047-.093.079-.14.218-.375.578-1.531.578C1.328-.234.5-.375.5-1.078c0-.328.281-.844.875-1.14m.328-.125c.219-.078.422-.078.594-.078.234 0 .281 0 .453.047-.14.078-.172.078-.531.078-.219 0-.344 0-.516-.047m0 0"/></defs><path fill="#f2f2f2" d="M45.36 13.742c0-6.726-5.454-12.183-12.18-12.183C26.453 1.559 21 7.016 21 13.742c0 6.727 5.453 12.18 12.18 12.18s12.18-5.453 12.18-12.18m0 0"/><g clip-path="url(#a)"><path fill="none" stroke="#000" stroke-miterlimit="10" stroke-width="3.11805528" d="M45.36 13.742c0-6.726-5.454-12.183-12.18-12.183C26.453 1.559 21 7.016 21 13.742c0 6.727 5.453 12.18 12.18 12.18s12.18-5.453 12.18-12.18Zm0 0"/></g><g clip-path="url(#b)"><path fill="none" stroke="#fff" stroke-miterlimit="10" stroke-width="1.9492735800000003" d="M45.36 13.742c0-6.726-5.454-12.183-12.18-12.183C26.453 1.559 21 7.016 21 13.742c0 6.727 5.453 12.18 12.18 12.18s12.18-5.453 12.18-12.18Zm0 0"/></g><use xlink:href="#c" x="29.526" y="17.23"/><path fill="none" stroke="#000" stroke-miterlimit="10" stroke-width=".58487988" d="M7.816 13.742h11.41"/><path stroke="#000" stroke-linejoin="round" stroke-miterlimit="10" stroke-width=".58487988" d="M20.121 13.742c-1.117-.226-2.238-.672-3.586-1.457 1.348 1.008 1.348 1.902 0 2.914 1.348-.785 2.469-1.234 3.586-1.457Zm0 0"/><g clip-path="url(#d)"><path fill="#f2f2f2" d="M114.672 13.742c0-6.726-5.453-12.183-12.18-12.183s-12.18 5.457-12.18 12.183c0 6.727 5.454 12.18 12.18 12.18 6.727 0 12.18-5.453 12.18-12.18m0 0"/></g><g clip-path="url(#e)"><path fill="none" stroke="#000" stroke-miterlimit="10" stroke-width=".58487988" d="M114.672 13.742c0-6.726-5.453-12.183-12.18-12.183s-12.18 5.457-12.18 12.183c0 6.727 5.454 12.18 12.18 12.18 6.727 0 12.18-5.453 12.18-12.18Zm0 0"/></g><use xlink:href="#f" x="99.043" y="17.068"/><path fill="none" stroke="#000" stroke-miterlimit="10" stroke-width=".58487988" d="M45.945 13.742h42.887"/><path stroke="#000" stroke-linejoin="round" stroke-miterlimit="10" stroke-width=".58487988" d="M89.727 13.742c-1.122-.226-2.239-.672-3.586-1.457 1.347 1.008 1.347 1.902 0 2.914 1.347-.785 2.464-1.234 3.586-1.457Zm0 0"/><use xlink:href="#g" x="65.407" y="10.201"/><g clip-path="url(#h)"><path fill="none" stroke="#000" stroke-miterlimit="10" stroke-width=".58487988" d="M91.691 19.977c-16.062 9.34-31.34 9.386-46.425.738"/></g><path stroke="#000" stroke-linejoin="round" stroke-miterlimit="10" stroke-width=".58485596" d="M44.488 20.27c.86.75 1.61 1.695 2.387 3.046-.664-1.543-.219-2.32 1.45-2.527-1.56.012-2.755-.156-3.837-.52Zm0 0"/><use xlink:href="#i" x="65.713" y="23.476"/></svg>