<svg xmlns="http://www.w3.org/2000/svg" xmlns:xlink="http://www.w3.org/1999/xlink" width="117.49" height="28.09" viewBox="0 0 117.49 28.09"><defs><clipPath id="a"><path d="M12 0h42v27.207H12Zm0 0"/></clipPath><clipPath id="c"><path d="M46 0h69.398v27.207H46Zm0 0"/></clipPath><clipPath id="d"><path d="M62 0h53.398v27.207H62Zm0 0"/></clipPath><path id="b" d="M6.922 0v-.297H6.75c-.578 0-.719-.062-.828-.39L3.844-6.72c-.047-.125-.063-.187-.219-.187s-.187.047-.234.187l-2 5.766c-.172.5-.563.64-1.078.656V0l.984-.031L2.407 0v-.297c-.485 0-.72-.25-.72-.5 0-.031 0-.125.016-.14l.438-1.266h2.39L5.047-.72c0 .031.016.094.016.125 0 .297-.532.297-.797.297V0c.343-.031 1.03-.031 1.39-.031Zm-2.5-2.5H2.25l1.078-3.14Zm0 0"/><path id="e" d="M6.281-1.766c0-.843-.781-1.562-1.86-1.687.938-.172 1.61-.797 1.61-1.516 0-.828-.89-1.625-2.156-1.625H.344v.297h.234c.75 0 .766.11.766.453V-.75c0 .344-.016.453-.766.453H.344V0H4.14c1.28 0 2.14-.86 2.14-1.766M5.094-4.969c0 .625-.485 1.438-1.547 1.438H2.14v-2.375c0-.328.015-.39.468-.39h1.204c.937 0 1.28.827 1.28 1.327m.234 3.188c0 .687-.516 1.484-1.5 1.484H2.61c-.453 0-.468-.062-.468-.39v-2.641h1.812c.969 0 1.375.906 1.375 1.547m0 0"/><path id="f" d="M3.61-3.656c-.188-.344-.47-.61-.891-.61C1.579-4.266.39-2.844.39-1.437.39-.531.92.109 1.67.109c.188 0 .673-.046 1.25-.734a.89.89 0 0 0 .876.734c.344 0 .562-.218.719-.53.172-.345.297-.938.297-.954 0-.11-.094-.11-.125-.11-.094 0-.094.048-.125.188-.172.625-.344 1.188-.735 1.188-.265 0-.297-.25-.297-.438 0-.219.016-.297.125-.719.11-.406.125-.5.219-.875l.344-1.343c.062-.266.062-.297.062-.328 0-.172-.11-.266-.281-.266-.219 0-.375.219-.39.422m-.641 2.5c-.047.187-.047.203-.188.36-.422.53-.828.687-1.094.687-.484 0-.609-.532-.609-.907 0-.484.297-1.671.531-2.109.297-.578.735-.937 1.11-.937.625 0 .765.796.765.859s-.015.11-.03.156Zm0 0"/></defs><path fill="#f2f2f2" d="M45.21 13.602c0-6.664-5.401-12.063-12.062-12.063-6.664 0-12.062 5.399-12.062 12.063 0 6.66 5.398 12.062 12.062 12.062 6.66 0 12.063-5.402 12.063-12.062m0 0"/><g clip-path="url(#a)"><path fill="none" stroke="#000" stroke-miterlimit="10" stroke-width=".57923476" d="M45.21 13.602c0-6.665-5.401-12.063-12.062-12.063-6.664 0-12.062 5.398-12.062 12.063 0 6.66 5.398 12.062 12.062 12.062 6.66 0 12.063-5.402 12.063-12.062Zm0 0"/></g><use xlink:href="#b" x="29.529" y="17.056"/><path fill="none" stroke="#000" stroke-miterlimit="10" stroke-width=".57923476" d="M8.32 13.602h11.297"/><path stroke="#000" stroke-linejoin="round" stroke-miterlimit="10" stroke-width=".57923476" d="M20.508 13.602c-1.11-.223-2.223-.668-3.551-1.442 1.328.996 1.328 1.887 0 2.883 1.328-.777 2.441-1.219 3.55-1.441Zm0 0"/><path fill="#f2f2f2" d="M113.855 13.602c0-6.664-5.402-12.063-12.062-12.063-6.664 0-12.063 5.399-12.063 12.063 0 6.66 5.399 12.062 12.063 12.062 6.66 0 12.062-5.402 12.062-12.062m0 0"/><g clip-path="url(#c)"><path fill="none" stroke="#000" stroke-miterlimit="10" stroke-width="3.0879605600000004" d="M113.855 13.602c0-6.665-5.402-12.063-12.062-12.063-6.664 0-12.063 5.398-12.063 12.063 0 6.66 5.399 12.062 12.063 12.062 6.66 0 12.062-5.402 12.062-12.062Zm0 0"/></g><g clip-path="url(#d)"><path fill="none" stroke="#fff" stroke-miterlimit="10" stroke-width="1.9304596600000001" d="M113.855 13.602c0-6.665-5.402-12.063-12.062-12.063-6.664 0-12.063 5.398-12.063 12.063 0 6.66 5.399 12.062 12.063 12.062 6.66 0 12.062-5.402 12.062-12.062Zm0 0"/></g><use xlink:href="#e" x="98.375" y="16.897"/><path fill="none" stroke="#000" stroke-miterlimit="10" stroke-width=".57923476" d="M45.5 13.602h42.473"/><path stroke="#000" stroke-linejoin="round" stroke-miterlimit="10" stroke-width=".57923476" d="M88.86 13.602c-1.11-.223-2.22-.668-3.551-1.442 1.332.996 1.332 1.887 0 2.883 1.332-.777 2.441-1.219 3.55-1.441Zm0 0"/><use xlink:href="#f" x="64.775" y="10.096"/></svg>