<svg xmlns="http://www.w3.org/2000/svg" xmlns:xlink="http://www.w3.org/1999/xlink" width="187.36" height="49.19" viewBox="0 0 187.36 49.19"><defs><path id="a" d="M7.031 0v-.297h-.187c-.578 0-.719-.078-.828-.406l-2.11-6.11c-.062-.14-.078-.203-.234-.203s-.188.063-.235.204L1.408-.953c-.173.5-.563.64-1.094.656V0l1-.031L2.438 0v-.297c-.485 0-.735-.25-.735-.5 0-.031.016-.14.016-.156l.453-1.281h2.422l.515 1.5a.4.4 0 0 1 .032.14c0 .297-.547.297-.813.297V0c.36-.031 1.047-.031 1.406-.031ZM4.484-2.531H2.281L3.375-5.72Zm0 0"/><path id="d" d="M4.89-1.828c0-.969-.656-1.781-1.468-1.969l-1.25-.312c-.61-.141-1-.672-1-1.235a1.27 1.27 0 0 1 1.297-1.281c1.64 0 1.86 1.594 1.906 2.047.016.047.016.11.125.11.125 0 .125-.048.125-.235v-1.969c0-.172 0-.234-.11-.234-.062 0-.077.015-.14.125l-.344.562c-.297-.281-.703-.687-1.578-.687C1.375-6.906.547-6.046.547-5c0 .813.516 1.516 1.281 1.781.11.047.61.156 1.297.328.266.063.563.141.828.5.203.25.313.579.313.907 0 .687-.5 1.39-1.313 1.39-.281 0-1.031-.047-1.547-.531-.578-.516-.61-1.14-.61-1.5-.015-.094-.093-.094-.124-.094-.125 0-.125.063-.125.235v1.968c0 .157 0 .235.11.235.062 0 .077-.016.14-.125l.36-.563c.296.328.937.688 1.796.688 1.156 0 1.938-.969 1.938-2.047m0 0"/><path id="g" d="M6.375-1.797c0-.844-.797-1.578-1.89-1.703.952-.187 1.624-.812 1.624-1.531 0-.86-.89-1.657-2.171-1.657H.358v.297h.235c.75 0 .765.11.765.47v5.155c0 .36-.015.47-.765.47H.359V0h3.829C5.5 0 6.374-.875 6.374-1.797M5.156-5.03c0 .625-.468 1.453-1.562 1.453H2.172V-6c0-.312.015-.39.484-.39h1.219c.938 0 1.281.827 1.281 1.359m.235 3.234c0 .688-.5 1.5-1.516 1.5H2.656c-.469 0-.484-.078-.484-.406v-2.672h1.844c.968 0 1.375.922 1.375 1.578m0 0"/><path id="h" d="M3.656-3.703c-.172-.36-.469-.625-.906-.625-1.14 0-2.36 1.437-2.36 2.875C.39-.531.939.109 1.688.109c.204 0 .688-.046 1.282-.734a.895.895 0 0 0 .89.734c.344 0 .563-.234.72-.546.171-.344.296-.938.296-.97 0-.093-.078-.093-.11-.093-.109 0-.109.047-.14.172-.172.64-.344 1.219-.75 1.219-.266 0-.297-.25-.297-.453 0-.22.031-.297.14-.72.11-.405.126-.515.204-.89l.36-1.36c.062-.28.062-.296.062-.343 0-.156-.11-.266-.282-.266-.234 0-.375.22-.406.438m-.64 2.531c-.047.188-.047.203-.188.375-.437.531-.844.688-1.11.688-.5 0-.624-.532-.624-.922 0-.485.312-1.688.531-2.14.313-.579.75-.938 1.14-.938.641 0 .766.797.766.859 0 .063-.015.11-.031.156Zm0 0"/><path id="i" d="M1.375-2.219c.328.125.61.125.844.125.265 0 .797 0 .797-.297 0-.234-.344-.265-.72-.265-.202 0-.546.015-.905.187C1.17-2.594 1-2.766 1-3.03c0-.61.953-.953 1.844-.953.156 0 .5 0 .906.265.094.078.125.11.188.11.124 0 .265-.141.265-.266 0-.187-.594-.562-1.266-.562-1.124 0-2.187.656-2.187 1.406 0 .422.36.656.39.687-.577.328-.89.875-.89 1.328C.25-.375.813.22 1.86.22c1.28 0 1.828-.86 1.828-1.016 0-.062-.047-.094-.11-.094a.11.11 0 0 0-.094.063c-.14.234-.375.594-1.546.594-.594 0-1.422-.141-1.422-.844 0-.328.265-.86.859-1.14m.328-.125c.234-.078.438-.094.594-.094.25 0 .297.016.469.063-.157.063-.172.078-.547.078-.203 0-.328 0-.516-.047m0 0"/><clipPath id="b"><path d="M1.203 0H91v48.395H1.203Zm0 0"/></clipPath><clipPath id="c"><path d="M1.203 0H74v48.395H1.203Zm0 0"/></clipPath><clipPath id="e"><path d="M160 1h25.527v26H160Zm0 0"/></clipPath><clipPath id="f"><path d="M152 0h33.527v35H152Zm0 0"/></clipPath></defs><path fill="#f2f2f2" stroke="#000" stroke-miterlimit="10" stroke-width=".5883124" d="M115.512 13.824c0-6.765-5.485-12.254-12.25-12.254-6.766 0-12.254 5.489-12.254 12.254 0 6.766 5.488 12.25 12.254 12.25s12.25-5.484 12.25-12.25Zm0 0"/><use xlink:href="#a" x="99.586" y="17.333"/><path fill="#f2f2f2" d="M45.793 13.824c0-6.765-5.484-12.254-12.25-12.254S21.289 7.06 21.289 13.824c0 6.766 5.488 12.25 12.254 12.25s12.25-5.484 12.25-12.25m0 0"/><g clip-path="url(#b)"><path fill="none" stroke="#000" stroke-miterlimit="10" stroke-width="3.1363544" d="M45.793 13.824c0-6.765-5.484-12.254-12.25-12.254S21.289 7.06 21.289 13.824c0 6.766 5.488 12.25 12.254 12.25s12.25-5.484 12.25-12.25Zm0 0"/></g><g clip-path="url(#c)"><path fill="none" stroke="#fff" stroke-miterlimit="10" stroke-width="1.9607134000000002" d="M45.793 13.824c0-6.765-5.484-12.254-12.25-12.254S21.289 7.06 21.289 13.824c0 6.766 5.488 12.25 12.254 12.25s12.25-5.484 12.25-12.25Zm0 0"/></g><use xlink:href="#d" x="30.817" y="17.17"/><path fill="none" stroke="#000" stroke-miterlimit="10" stroke-width=".5883124" d="M8.027 13.824h11.48"/><path stroke="#000" stroke-linejoin="round" stroke-miterlimit="10" stroke-width=".5883124" d="M20.41 13.824c-1.129-.226-2.258-.676-3.61-1.465 1.352 1.012 1.352 1.914 0 2.93 1.352-.789 2.481-1.242 3.61-1.465Zm0 0"/><g clip-path="url(#e)"><path fill="#f2f2f2" d="M185.23 13.824c0-6.765-5.484-12.254-12.25-12.254-6.765 0-12.253 5.489-12.253 12.254 0 6.766 5.488 12.25 12.253 12.25 6.766 0 12.25-5.484 12.25-12.25m0 0"/></g><g clip-path="url(#f)"><path fill="none" stroke="#000" stroke-miterlimit="10" stroke-width=".5883124" d="M185.23 13.824c0-6.765-5.484-12.254-12.25-12.254-6.765 0-12.253 5.489-12.253 12.254 0 6.766 5.488 12.25 12.253 12.25 6.766 0 12.25-5.484 12.25-12.25Zm0 0"/></g><use xlink:href="#g" x="169.51" y="17.17"/><path fill="none" stroke="#000" stroke-miterlimit="10" stroke-width=".5883124" d="M115.809 13.824h43.43"/><path stroke="#000" stroke-linejoin="round" stroke-miterlimit="10" stroke-width=".5883124" d="M160.14 13.824c-1.128-.226-2.253-.676-3.605-1.465 1.352 1.012 1.352 1.914 0 2.93 1.352-.789 2.477-1.242 3.606-1.465Zm0 0"/><use xlink:href="#h" x="135.53" y="10.263"/><path fill="none" stroke="#000" stroke-miterlimit="10" stroke-width=".5883124" d="M46.383 13.824H89.52"/><path stroke="#000" stroke-linejoin="round" stroke-miterlimit="10" stroke-width=".5883124" d="M90.422 13.824c-1.129-.226-2.254-.676-3.606-1.465 1.352 1.012 1.352 1.914 0 2.93 1.352-.789 2.477-1.242 3.606-1.465Zm0 0"/><use xlink:href="#i" x="66.263" y="10.263"/><path fill="none" stroke="#000" stroke-miterlimit="10" stroke-width=".5883124" d="M162.117 20.098c-39.64 22.949-77.762 22.996-116.418.742"/><path stroke="#000" stroke-linejoin="round" stroke-miterlimit="10" stroke-width=".5883004399999999" d="M44.918 20.39c.863.758 1.613 1.712 2.395 3.07-.668-1.554-.22-2.335 1.46-2.542-1.566.012-2.77-.16-3.855-.527Zm0 0"/><use xlink:href="#i" x="101.124" y="45.127"/></svg>