<svg xmlns="http://www.w3.org/2000/svg" xmlns:xlink="http://www.w3.org/1999/xlink" width="138.64" height="73.71" viewBox="0 0 138.64 73.71"><defs><path id="c" d="M7.11 0v-.312h-.173c-.593 0-.734-.063-.843-.391l-2.14-6.203c-.048-.125-.079-.203-.235-.203s-.188.062-.235.203L1.422-.97c-.172.5-.563.657-1.11.657V0l1.016-.031L2.468 0v-.312c-.5 0-.75-.25-.75-.5 0-.032.016-.125.032-.157l.453-1.297h2.453L5.172-.75a.6.6 0 0 1 .031.14c0 .298-.547.298-.812.298V0c.359-.031 1.047-.031 1.422-.031ZM4.546-2.562H2.313l1.109-3.235Zm0 0"/><path id="d" d="M6.453-1.812c0-.86-.812-1.61-1.906-1.735.953-.187 1.64-.812 1.64-1.547 0-.875-.906-1.687-2.203-1.687H.36v.312h.235c.765 0 .781.11.781.469v5.219c0 .36-.016.469-.781.469H.359V0H4.25c1.313 0 2.203-.89 2.203-1.812M5.234-5.094c0 .625-.484 1.469-1.593 1.469H2.203v-2.453c0-.328.016-.39.485-.39h1.234c.953 0 1.312.843 1.312 1.374m.235 3.266c0 .703-.516 1.516-1.547 1.516H2.687c-.468 0-.484-.063-.484-.391v-2.703h1.86c.984 0 1.406.922 1.406 1.578m0 0"/><path id="e" d="M3.703-3.75c-.187-.375-.469-.64-.922-.64-1.156 0-2.39 1.468-2.39 2.906C.39-.547.938.109 1.719.109 1.922.11 2.406.063 3-.64a.91.91 0 0 0 .906.75c.344 0 .578-.234.735-.546.172-.36.297-.97.297-.985 0-.094-.079-.094-.11-.094-.11 0-.11.032-.14.172-.172.657-.36 1.235-.766 1.235-.266 0-.297-.25-.297-.453 0-.22.031-.297.14-.735.11-.422.126-.516.22-.89l.343-1.391c.078-.281.078-.297.078-.344 0-.172-.125-.265-.281-.265-.25 0-.39.218-.422.437m-.64 2.563C3-1 3-.984 2.859-.812c-.437.546-.843.703-1.125.703-.5 0-.64-.547-.64-.938 0-.484.328-1.719.547-2.172.312-.578.765-.953 1.156-.953.64 0 .781.813.781.875a.6.6 0 0 1-.031.172Zm0 0"/><path id="f" d="M2.375-6.781s0-.11-.125-.11c-.234 0-.953.079-1.219.11-.078 0-.187.015-.187.187 0 .125.094.125.234.125.484 0 .5.063.5.172 0 .063-.094.406-.14.61L.625-2.453c-.125.5-.156.656-.156 1C.469-.5.984.109 1.719.109c1.172 0 2.406-1.484 2.406-2.906 0-.906-.531-1.594-1.328-1.594-.453 0-.86.297-1.156.594Zm-.937 3.75c.062-.219.062-.235.156-.344.484-.64.922-.797 1.187-.797.36 0 .625.297.625.938 0 .578-.328 1.718-.515 2.109-.328.656-.782 1.016-1.172 1.016-.328 0-.657-.266-.657-1 0-.188 0-.375.157-1Zm0 0"/><path id="g" d="M1.406-2.25c.313.14.61.14.844.14.266 0 .813 0 .813-.312 0-.234-.36-.265-.735-.265-.203 0-.547.015-.922.187-.218-.125-.39-.312-.39-.578 0-.61.968-.953 1.859-.953.156 0 .516 0 .922.265.11.079.125.11.187.11.141 0 .266-.14.266-.266 0-.203-.594-.578-1.281-.578-1.14 0-2.203.672-2.203 1.422 0 .422.359.672.39.703-.578.328-.89.89-.89 1.344 0 .64.562 1.25 1.609 1.25 1.313 0 1.86-.875 1.86-1.016a.107.107 0 0 0-.11-.11c-.047 0-.078.048-.094.079-.14.219-.375.594-1.562.594-.61 0-1.453-.157-1.453-.86 0-.328.28-.86.89-1.156m.313-.125a1.9 1.9 0 0 1 .61-.094c.25 0 .296.016.468.063-.14.062-.172.078-.547.078-.219 0-.328 0-.531-.047m0 0"/><clipPath id="a"><path d="M.094 0H91v73.422H.094Zm0 0"/></clipPath><clipPath id="b"><path d="M.094 0H74v66H.094Zm0 0"/></clipPath></defs><path fill="#f2f2f2" d="M45.242 24.71c0-6.85-5.554-12.405-12.406-12.405S20.434 17.859 20.434 24.71s5.55 12.402 12.402 12.402 12.406-5.55 12.406-12.402m0 0"/><g clip-path="url(#a)"><path fill="none" stroke="#000" stroke-miterlimit="10" stroke-width="3.17550304" d="M45.242 24.71c0-6.85-5.555-12.405-12.406-12.405S20.434 17.859 20.434 24.71c0 6.851 5.55 12.402 12.402 12.402s12.406-5.55 12.406-12.402Zm0 0"/></g><g clip-path="url(#b)"><path fill="none" stroke="#fff" stroke-miterlimit="10" stroke-width="1.98518744" d="M45.242 24.71c0-6.85-5.555-12.405-12.406-12.405S20.434 17.859 20.434 24.71c0 6.851 5.55 12.402 12.402 12.402s12.406-5.55 12.406-12.402Zm0 0"/></g><use xlink:href="#c" x="29.115" y="28.263"/><path fill="none" stroke="#000" stroke-miterlimit="10" stroke-width=".5956558399999999" d="M7.004 24.71h11.621"/><path stroke="#000" stroke-linejoin="round" stroke-miterlimit="10" stroke-width=".5956558399999999" d="M19.54 24.71c-1.142-.23-2.282-.687-3.653-1.483 1.37 1.027 1.37 1.941 0 2.964 1.37-.796 2.511-1.253 3.652-1.48Zm0 0"/><path fill="#f2f2f2" stroke="#000" stroke-miterlimit="10" stroke-width=".5956558399999999" d="M115.832 24.71c0-6.85-5.555-12.405-12.406-12.405S91.02 17.859 91.02 24.71c0 6.851 5.554 12.402 12.406 12.402 6.851 0 12.406-5.55 12.406-12.402Zm0 0"/><use xlink:href="#d" x="99.913" y="28.098"/><path fill="none" stroke="#000" stroke-miterlimit="10" stroke-width=".5956558399999999" d="M44.094 18.21c16.414-9.41 31.976-9.362 47.285-.46"/><path stroke="#000" stroke-linejoin="round" stroke-miterlimit="10" stroke-width=".59563192" d="M92.168 18.21c-.871-.773-1.629-1.741-2.41-3.12.668 1.578.207 2.367-1.492 2.566 1.586-.004 2.8.176 3.902.555Zm0 0"/><use xlink:href="#e" x="65.659" y="7.584"/><path fill="none" stroke="#000" stroke-miterlimit="10" stroke-width=".5956558399999999" d="M92.426 31.062c-16.356 9.508-31.918 9.56-47.281.75"/><path stroke="#000" stroke-linejoin="round" stroke-miterlimit="10" stroke-width=".59563192" d="M44.352 31.36c.878.765 1.64 1.726 2.433 3.1-.68-1.57-.226-2.362 1.473-2.573-1.586.011-2.801-.16-3.906-.528Zm0 0"/><use xlink:href="#f" x="66.152" y="48.727"/><path fill="none" stroke="#000" stroke-miterlimit="10" stroke-width=".5956558399999999" d="M111.59 34.441c26.305 31.348-101.106 38.684-87.524 1.364"/><path stroke="#000" stroke-linejoin="round" stroke-miterlimit="10" stroke-width=".5956438799999999" d="M24.379 34.95c-.606.991-1.426 1.91-2.645 2.921 1.434-.933 2.293-.621 2.79 1.016-.282-1.559-.32-2.79-.145-3.938Zm0 0"/><use xlink:href="#g" x="70.337" y="68.609"/></svg>