<svg xmlns="http://www.w3.org/2000/svg" xmlns:xlink="http://www.w3.org/1999/xlink" width="117.49" height="52.24" viewBox="0 0 117.49 52.24"><defs><path id="a" d="M7.031 0v-.297H6.86c-.593 0-.718-.078-.828-.406L3.906-6.828c-.047-.125-.062-.203-.219-.203-.171 0-.187.062-.25.203l-2.03 5.86c-.173.5-.563.656-1.094.671V0l1-.031L2.438 0v-.297c-.485 0-.735-.25-.735-.5 0-.031.016-.14.031-.156l.438-1.281h2.437l.516 1.5c0 .03.031.093.031.14 0 .297-.547.297-.812.297V0c.343-.031 1.031-.031 1.406-.031ZM4.5-2.547H2.281l1.11-3.187Zm0 0"/><path id="d" d="M6.39-1.797c0-.86-.812-1.594-1.89-1.703.953-.187 1.625-.812 1.625-1.547 0-.844-.906-1.656-2.187-1.656H.358v.312h.235c.75 0 .765.094.765.454v5.171c0 .36-.015.47-.765.47H.359V0h3.844C5.5 0 6.391-.875 6.391-1.797m-1.218-3.25c0 .625-.484 1.453-1.578 1.453H2.172V-6c0-.328.031-.39.484-.39h1.219c.953 0 1.297.827 1.297 1.343m.234 3.234c0 .704-.515 1.516-1.515 1.516H2.656c-.453 0-.484-.078-.484-.406v-2.672h1.844c.984 0 1.39.906 1.39 1.563m0 0"/><path id="e" d="M3.656-3.703c-.172-.375-.453-.64-.906-.64C1.61-4.344.39-2.892.39-1.47.39-.547.939.11 1.704.11c.188 0 .688-.046 1.266-.734a.895.895 0 0 0 .89.734c.344 0 .579-.234.735-.546.172-.344.297-.954.297-.97 0-.093-.094-.093-.125-.093-.094 0-.11.031-.141.172-.156.64-.344 1.219-.734 1.219-.266 0-.297-.25-.297-.453 0-.22.015-.297.125-.72.11-.421.125-.515.219-.89l.343-1.375c.078-.265.078-.297.078-.328 0-.172-.125-.266-.28-.266-.235 0-.391.22-.423.438m-.64 2.531c-.047.188-.047.203-.188.375-.437.531-.844.688-1.11.688-.484 0-.624-.532-.624-.922 0-.485.312-1.703.531-2.14.313-.595.75-.954 1.14-.954.641 0 .782.813.782.875 0 .047-.031.11-.031.156Zm0 0"/><path id="f" d="M2.344-6.703c0-.016 0-.11-.125-.11-.235 0-.938.079-1.203.094-.079.016-.188.032-.188.203 0 .125.094.125.235.125.484 0 .5.063.5.157 0 .078-.094.406-.141.609L.625-2.422c-.125.485-.156.64-.156.985C.469-.5.984.109 1.703.109c1.156 0 2.375-1.468 2.375-2.875 0-.89-.531-1.578-1.312-1.578-.453 0-.86.297-1.141.594ZM1.422-3c.062-.203.062-.234.14-.344.485-.625.938-.781 1.188-.781.344 0 .61.297.61.922 0 .578-.313 1.719-.5 2.078-.313.656-.766 1.016-1.157 1.016-.328 0-.656-.266-.656-.985 0-.187 0-.375.156-1Zm0 0"/><clipPath id="b"><path d="M45 0h71.395v51.492H45Zm0 0"/></clipPath><clipPath id="c"><path d="M62 0h54.395v51.492H62Zm0 0"/></clipPath></defs><path fill="#f2f2f2" stroke="#000" stroke-miterlimit="10" stroke-width=".5894246799999999" d="M44.973 24.453c0-6.781-5.496-12.277-12.274-12.277-6.781 0-12.277 5.496-12.277 12.277 0 6.777 5.496 12.274 12.277 12.274 6.778 0 12.274-5.497 12.274-12.274Zm0 0"/><use xlink:href="#a" x="29.016" y="27.968"/><path fill="none" stroke="#000" stroke-miterlimit="10" stroke-width=".5894246799999999" d="M7.43 24.453h11.5"/><path stroke="#000" stroke-linejoin="round" stroke-miterlimit="10" stroke-width=".5894246799999999" d="M19.832 24.453c-1.129-.226-2.258-.68-3.613-1.469 1.355 1.016 1.355 1.918 0 2.938 1.355-.793 2.484-1.242 3.613-1.469Zm0 0"/><path fill="#f2f2f2" d="M114.824 24.453c0-6.781-5.496-12.277-12.277-12.277-6.777 0-12.274 5.496-12.274 12.277 0 6.777 5.497 12.274 12.274 12.274 6.781 0 12.277-5.497 12.277-12.274m0 0"/><g clip-path="url(#b)"><path fill="none" stroke="#000" stroke-miterlimit="10" stroke-width="3.14228408" d="M114.824 24.453c0-6.781-5.496-12.277-12.277-12.277-6.777 0-12.274 5.496-12.274 12.277 0 6.777 5.497 12.274 12.274 12.274 6.781 0 12.277-5.497 12.277-12.274Zm0 0"/></g><g clip-path="url(#c)"><path fill="none" stroke="#fff" stroke-miterlimit="10" stroke-width="1.96442038" d="M114.824 24.453c0-6.781-5.496-12.277-12.277-12.277-6.777 0-12.274 5.496-12.274 12.277 0 6.777 5.497 12.274 12.274 12.274 6.781 0 12.277-5.497 12.277-12.274Zm0 0"/></g><use xlink:href="#d" x="99.072" y="27.805"/><path fill="none" stroke="#000" stroke-miterlimit="10" stroke-width=".5894246799999999" d="M43.582 18.168c16.188-9.41 31.582-9.461 46.785-.742"/><path stroke="#000" stroke-linejoin="round" stroke-miterlimit="10" stroke-width=".58940076" d="M91.152 17.875c-.867-.758-1.62-1.71-2.406-3.07.672 1.554.223 2.34-1.457 2.547 1.566-.012 2.773.156 3.863.523Zm0 0"/><use xlink:href="#e" x="64.879" y="7.506"/><path fill="none" stroke="#000" stroke-miterlimit="10" stroke-width=".5894246799999999" d="M91.41 30.883c-16.246 9.312-31.64 9.265-46.793.457"/><path stroke="#000" stroke-linejoin="round" stroke-miterlimit="10" stroke-width=".58940076" d="M43.84 30.887c.86.761 1.61 1.718 2.383 3.082-.66-1.559-.207-2.34 1.476-2.535-1.566 0-2.773-.176-3.86-.547Zm0 0"/><use xlink:href="#f" x="65.367" y="48.219"/></svg>