<svg xmlns="http://www.w3.org/2000/svg" xmlns:xlink="http://www.w3.org/1999/xlink" width="204.64" height="78.96" viewBox="0 0 204.64 78.96"><defs><path id="a" d="M7.125 0v-.312h-.172c-.61 0-.734-.063-.844-.391L3.953-6.922c-.047-.125-.062-.187-.219-.187-.171 0-.203.046-.25.187L1.438-.969c-.188.5-.579.657-1.125.657V0l1.015-.031L2.468 0v-.312c-.484 0-.734-.25-.734-.5 0-.032 0-.125.016-.157l.453-1.297h2.453L5.188-.75a.6.6 0 0 1 .03.14c0 .298-.562.298-.827.298V0c.359-.031 1.062-.031 1.437-.031ZM4.547-2.578H2.313l1.109-3.219Zm0 0"/><path id="d" d="M4.953-1.844c0-1-.656-1.812-1.484-2.015l-1.266-.297a1.31 1.31 0 0 1-1.015-1.266A1.3 1.3 0 0 1 2.5-6.734c1.656 0 1.875 1.64 1.938 2.078.015.062.015.125.125.125.125 0 .125-.047.125-.235v-2c0-.171 0-.234-.11-.234-.062 0-.078 0-.14.125l-.36.563C3.781-6.594 3.375-7 2.5-7 1.39-7 .563-6.125.563-5.078a1.9 1.9 0 0 0 1.296 1.812c.11.047.61.172 1.313.329.265.078.562.14.844.515.203.25.312.578.312.906 0 .704-.5 1.422-1.344 1.422-.28 0-1.03-.047-1.562-.531-.578-.531-.61-1.172-.61-1.531C.798-2.25.72-2.25.688-2.25c-.125 0-.125.063-.125.25v1.984c0 .172 0 .235.11.235.062 0 .078-.016.14-.125 0 0 .032-.047.36-.578.312.343.937.703 1.828.703 1.156 0 1.953-.969 1.953-2.063m0 0"/><path id="e" d="M6.469-1.812c0-.875-.813-1.61-1.922-1.735.969-.187 1.656-.828 1.656-1.562 0-.86-.922-1.672-2.203-1.672H.36v.297h.234c.765 0 .781.109.781.468V-.78c0 .36-.016.469-.781.469H.359V0H4.25c1.328 0 2.219-.89 2.219-1.812M5.234-5.11c0 .64-.484 1.468-1.593 1.468H2.203v-2.437c0-.328.016-.406.485-.406h1.234c.969 0 1.312.843 1.312 1.375m.235 3.28c0 .704-.516 1.517-1.532 1.517h-1.25c-.468 0-.484-.063-.484-.391v-2.719h1.875c.984 0 1.39.922 1.39 1.594m0 0"/><path id="f" d="M3.703-3.75c-.172-.375-.469-.64-.906-.64C1.625-4.39.39-2.939.39-1.485.39-.547.938.109 1.719.109c.203 0 .703-.046 1.297-.75.078.422.422.75.906.75.344 0 .562-.234.734-.546a6.5 6.5 0 0 0 .297-.985c0-.094-.094-.094-.125-.094-.094 0-.11.032-.14.172-.172.64-.344 1.235-.75 1.235-.266 0-.297-.266-.297-.453 0-.22.015-.297.125-.735.109-.422.125-.516.218-.906l.36-1.39c.062-.266.062-.298.062-.329 0-.172-.11-.265-.281-.265-.234 0-.39.218-.422.437m-.64 2.563c-.047.187-.047.203-.204.375-.437.546-.843.703-1.125.703-.484 0-.625-.547-.625-.938 0-.5.313-1.719.547-2.172.297-.594.75-.953 1.14-.953.657 0 .798.813.798.875s-.031.11-.031.172Zm0 0"/><path id="g" d="M2.375-6.781c0-.016 0-.11-.125-.11-.234 0-.953.079-1.219.094-.078.016-.187.016-.187.203 0 .11.094.11.234.11.484 0 .5.078.5.172 0 .078-.094.406-.14.625L.625-2.453c-.125.5-.156.656-.156 1C.469-.5 1 .109 1.734.109c1.172 0 2.391-1.484 2.391-2.906 0-.906-.531-1.594-1.328-1.594-.453 0-.86.282-1.156.594Zm-.937 3.75c.062-.219.062-.235.156-.344.484-.656.937-.797 1.187-.797.36 0 .625.297.625.938 0 .578-.328 1.718-.5 2.093-.328.672-.797 1.032-1.172 1.032-.343 0-.671-.266-.671-1 0-.188 0-.375.156-1Zm0 0"/><path id="h" d="M1.406-2.25c.328.14.61.14.844.14.266 0 .813 0 .813-.312 0-.234-.344-.265-.735-.265-.203 0-.547.015-.922.187-.218-.125-.39-.312-.39-.578 0-.61.968-.969 1.859-.969.172 0 .531 0 .922.281.11.079.125.094.203.094.125 0 .266-.125.266-.265 0-.188-.61-.563-1.282-.563-1.14 0-2.218.672-2.218 1.422 0 .422.359.672.39.703-.578.328-.89.89-.89 1.344 0 .64.562 1.25 1.609 1.25C3.188.219 3.75-.656 3.75-.812c0-.047-.047-.094-.11-.094-.046 0-.078.047-.109.078-.125.219-.375.594-1.562.594-.61 0-1.453-.157-1.453-.86 0-.343.28-.86.89-1.156m.328-.14c.22-.079.438-.079.594-.079.25 0 .297 0 .469.047-.14.078-.156.094-.547.094-.219 0-.328 0-.516-.063m0 0"/><clipPath id="b"><path d="M0 .05h91v78.821H0Zm0 0"/></clipPath><clipPath id="c"><path d="M0 .05h74V66H0Zm0 0"/></clipPath></defs><path fill="#f2f2f2" stroke="#000" stroke-miterlimit="10" stroke-width=".59694752" d="M107.5 24.75c0-6.867-5.566-12.434-12.434-12.434-6.863 0-12.43 5.567-12.43 12.434s5.567 12.43 12.43 12.43c6.868 0 12.434-5.563 12.434-12.43Zm0 0"/><use xlink:href="#a" x="91.338" y="28.311"/><path fill="#f2f2f2" d="M45.246 24.75c0-6.867-5.566-12.434-12.434-12.434-6.863 0-12.43 5.567-12.43 12.434s5.567 12.43 12.43 12.43c6.868 0 12.434-5.563 12.434-12.43m0 0"/><g clip-path="url(#b)"><path fill="none" stroke="#000" stroke-miterlimit="10" stroke-width="3.1823891200000003" d="M45.246 24.75c0-6.867-5.566-12.434-12.434-12.434-6.863 0-12.43 5.567-12.43 12.434s5.567 12.43 12.43 12.43c6.868 0 12.434-5.563 12.434-12.43Zm0 0"/></g><g clip-path="url(#c)"><path fill="none" stroke="#fff" stroke-miterlimit="10" stroke-width="1.98949232" d="M45.246 24.75c0-6.867-5.566-12.434-12.434-12.434-6.863 0-12.43 5.567-12.43 12.434s5.567 12.43 12.43 12.43c6.868 0 12.434-5.563 12.434-12.43Zm0 0"/></g><use xlink:href="#d" x="30.049" y="28.146"/><path fill="none" stroke="#000" stroke-miterlimit="10" stroke-width=".59694752" d="M6.926 24.75h11.648"/><path stroke="#000" stroke-linejoin="round" stroke-miterlimit="10" stroke-width=".59694752" d="M19.488 24.75c-1.144-.23-2.289-.687-3.66-1.488 1.371 1.031 1.371 1.945 0 2.976 1.371-.8 2.516-1.258 3.66-1.488Zm0 0"/><path fill="#f2f2f2" stroke="#000" stroke-miterlimit="10" stroke-width=".59694752" d="M178.242 24.75c0-6.867-5.566-12.434-12.433-12.434-6.864 0-12.43 5.567-12.43 12.434s5.566 12.43 12.43 12.43c6.867 0 12.433-5.563 12.433-12.43Zm0 0"/><use xlink:href="#e" x="162.29" y="28.146"/><path fill="none" stroke="#000" stroke-miterlimit="10" stroke-width=".59694752" d="M106.094 18.387c16.445-9.496 32.246-9.496 47.64-.61"/><path stroke="#000" stroke-linejoin="round" stroke-miterlimit="10" stroke-width=".5969355599999999" d="M154.527 18.234c-.875-.77-1.636-1.734-2.425-3.117.675 1.578.214 2.371-1.489 2.578 1.59-.007 2.809.168 3.914.54Zm0 0"/><use xlink:href="#f" x="127.81" y="7.651"/><path fill="none" stroke="#000" stroke-miterlimit="10" stroke-width=".59694752" d="M154.785 31.113c-16.445 9.496-32.246 9.496-47.64.61"/><path stroke="#000" stroke-linejoin="round" stroke-miterlimit="10" stroke-width=".5969355599999999" d="M106.352 31.266c.875.77 1.636 1.734 2.425 3.117-.675-1.578-.218-2.371 1.485-2.578-1.586.008-2.805-.168-3.91-.54Zm0 0"/><use xlink:href="#g" x="128.305" y="48.755"/><path fill="none" stroke="#000" stroke-miterlimit="10" stroke-width=".59694752" d="M45.844 24.75h35.281"/><path stroke="#000" stroke-linejoin="round" stroke-miterlimit="10" stroke-width=".59694752" d="M82.04 24.75c-1.145-.23-2.286-.687-3.661-1.488 1.375 1.031 1.375 1.945 0 2.976 1.375-.8 2.516-1.258 3.66-1.488Zm0 0"/><use xlink:href="#h" x="61.771" y="21.137"/><path fill="none" stroke="#000" stroke-miterlimit="10" stroke-width=".59694752" d="M173.992 34.5C203.984 70.242 8.48 78.574 24.023 35.871"/><path stroke="#000" stroke-linejoin="round" stroke-miterlimit="10" stroke-width=".59694154" d="M24.336 35.012c-.606.996-1.426 1.914-2.648 2.93 1.437-.938 2.296-.626 2.796 1.015-.285-1.562-.324-2.793-.148-3.945Zm0 0"/><use xlink:href="#h" x="102.16" y="72.355"/></svg>