<svg xmlns="http://www.w3.org/2000/svg" xmlns:xlink="http://www.w3.org/1999/xlink" width="204.64" height="96.69" viewBox="0 0 204.64 96.69"><defs><path id="a" d="M7.516-5.75c.093-.39.28-.703 1.078-.734.047 0 .156 0 .156-.188 0-.016 0-.11-.125-.11-.328 0-.672.032-1 .032-.344 0-.687-.031-1.016-.031-.062 0-.187 0-.187.187 0 .11.11.11.187.11.563.015.672.218.672.437 0 .031-.015.188-.031.219L6.14-1.406 3.939-6.594c-.079-.187-.079-.187-.313-.187H2.297c-.203 0-.297 0-.297.187 0 .11.094.11.281.11.047 0 .688 0 .688.093L1.625-1.047c-.094.39-.266.703-1.062.734C.5-.312.39-.296.39-.109.39-.047.437 0 .516 0c.312 0 .672-.031 1-.031S2.203 0 2.53 0c.047 0 .188 0 .188-.203 0-.094-.094-.11-.203-.11-.578-.015-.657-.234-.657-.437 0-.062.016-.11.032-.219l1.312-5.25c.047.063.047.078.094.172L5.78-.187c.063.171.094.187.188.187.11 0 .11-.031.156-.203Zm0 0"/><path id="c" d="M1.406-2.25c.328.14.61.14.844.14.266 0 .813 0 .813-.312 0-.234-.344-.265-.735-.265-.203 0-.547.015-.922.187-.218-.125-.39-.312-.39-.578 0-.61.968-.969 1.859-.969.172 0 .531 0 .922.281.11.079.125.094.203.094.125 0 .266-.125.266-.265 0-.188-.61-.563-1.282-.563-1.14 0-2.218.672-2.218 1.422 0 .422.359.672.39.703-.578.328-.89.89-.89 1.344 0 .64.562 1.25 1.609 1.25C3.188.219 3.75-.656 3.75-.812c0-.047-.047-.094-.11-.094-.046 0-.078.047-.109.078-.125.219-.375.594-1.562.594-.61 0-1.453-.157-1.453-.86 0-.343.28-.86.89-1.156m.328-.14c.22-.079.438-.079.594-.079.25 0 .297 0 .469.047-.14.078-.156.094-.547.094-.219 0-.328 0-.516-.063m0 0"/><path id="i" d="M3.703-3.75c-.172-.375-.469-.64-.906-.64C1.625-4.39.39-2.939.39-1.485.39-.547.938.109 1.719.109c.203 0 .703-.046 1.297-.75.078.422.422.75.906.75.344 0 .562-.234.734-.546a6.5 6.5 0 0 0 .297-.985c0-.094-.094-.094-.125-.094-.094 0-.11.032-.14.172-.172.64-.344 1.235-.75 1.235-.266 0-.297-.266-.297-.453 0-.22.015-.297.125-.735.109-.422.125-.516.218-.906l.36-1.39c.062-.266.062-.298.062-.329 0-.172-.11-.265-.281-.265-.234 0-.39.218-.422.437m-.64 2.563c-.047.187-.047.203-.204.375-.437.546-.843.703-1.125.703-.484 0-.625-.547-.625-.938 0-.5.313-1.719.547-2.172.297-.594.75-.953 1.14-.953.657 0 .798.813.798.875s-.031.11-.031.172Zm0 0"/><path id="j" d="M2.375-6.781c0-.016 0-.11-.125-.11-.234 0-.953.079-1.219.094-.078.016-.187.016-.187.203 0 .11.094.11.234.11.484 0 .5.078.5.172 0 .078-.094.406-.14.625L.625-2.453c-.125.5-.156.656-.156 1C.469-.5 1 .109 1.734.109c1.172 0 2.391-1.484 2.391-2.906 0-.906-.531-1.594-1.328-1.594-.453 0-.86.282-1.156.594Zm-.937 3.75c.062-.219.062-.235.156-.344.484-.656.937-.797 1.187-.797.36 0 .625.297.625.938 0 .578-.328 1.718-.5 2.093-.328.672-.797 1.032-1.172 1.032-.343 0-.671-.266-.671-1 0-.188 0-.375.156-1Zm0 0"/><path id="b" d="M3.516-1.266H3.28c-.031.157-.094.563-.187.641-.063.031-.594.031-.688.031H1.125c.734-.64.969-.843 1.39-1.172.516-.406 1-.828 1-1.5 0-.843-.734-1.343-1.624-1.343-.875 0-1.453.593-1.453 1.234 0 .36.296.39.375.39.156 0 .359-.109.359-.359 0-.14-.047-.375-.406-.375.218-.5.687-.64 1.015-.64.688 0 1.063.53 1.063 1.093 0 .61-.438 1.094-.656 1.344L.5-.266C.438-.203.438-.187.438 0h2.859Zm0 0"/><path id="d" d="M7.125 0v-.312h-.172c-.61 0-.734-.063-.844-.391L3.953-6.922c-.047-.125-.062-.187-.219-.187-.171 0-.203.046-.25.187L1.438-.969c-.188.5-.579.657-1.125.657V0l1.015-.031L2.468 0v-.312c-.484 0-.734-.25-.734-.5 0-.032 0-.125.016-.157l.453-1.297h2.453L5.188-.75a.6.6 0 0 1 .03.14c0 .298-.562.298-.827.298V0c.359-.031 1.062-.031 1.437-.031ZM4.547-2.578H2.313l1.109-3.219Zm0 0"/><path id="g" d="M4.953-1.844c0-1-.656-1.812-1.484-2.015l-1.266-.297a1.31 1.31 0 0 1-1.015-1.266A1.3 1.3 0 0 1 2.5-6.734c1.656 0 1.875 1.64 1.938 2.078.015.062.015.125.125.125.125 0 .125-.047.125-.235v-2c0-.171 0-.234-.11-.234-.062 0-.078 0-.14.125l-.36.563C3.781-6.594 3.375-7 2.5-7 1.39-7 .563-6.125.563-5.078a1.9 1.9 0 0 0 1.296 1.812c.11.047.61.172 1.313.329.265.078.562.14.844.515.203.25.312.578.312.906 0 .704-.5 1.422-1.344 1.422-.28 0-1.03-.047-1.562-.531-.578-.531-.61-1.172-.61-1.531C.798-2.25.72-2.25.688-2.25c-.125 0-.125.063-.125.25v1.984c0 .172 0 .235.11.235.062 0 .078-.016.14-.125 0 0 .032-.047.36-.578.312.343.937.703 1.828.703 1.156 0 1.953-.969 1.953-2.063m0 0"/><path id="h" d="M6.469-1.812c0-.875-.813-1.61-1.922-1.735.969-.187 1.656-.828 1.656-1.562 0-.86-.922-1.672-2.203-1.672H.36v.297h.234c.765 0 .781.109.781.468V-.78c0 .36-.016.469-.781.469H.359V0H4.25c1.328 0 2.219-.89 2.219-1.812M5.234-5.11c0 .64-.484 1.468-1.593 1.468H2.203v-2.437c0-.328.016-.406.485-.406h1.234c.969 0 1.312.843 1.312 1.375m.235 3.28c0 .704-.516 1.517-1.532 1.517h-1.25c-.468 0-.484-.063-.484-.391v-2.719h1.875c.984 0 1.39.922 1.39 1.594m0 0"/><clipPath id="e"><path d="M.148 0H91v96.383H.148Zm0 0"/></clipPath><clipPath id="f"><path d="M.148 1H74v82H.148Zm0 0"/></clipPath></defs><path fill="#ff7f7f" fill-opacity=".1" stroke="#e50000" stroke-dasharray="2.979265744 2.979265744" stroke-miterlimit="10" stroke-width=".7944496000000001" d="M78.129 69.18h104.539V15.496H78.128Zm0 0"/><use xlink:href="#a" x="124.181" y="10.1"/><use xlink:href="#b" x="132.16" y="11.589"/><path fill="#7f7fff" fill-opacity=".1" stroke="#7f7f7f" stroke-dasharray="2.979265744 2.979265744" stroke-miterlimit="10" stroke-width=".7944496000000001" d="M15.668 69.477h34.496V15.199H15.668Zm0 0"/><use xlink:href="#c" x="30.599" y="11.295"/><path fill="#f2f2f2" stroke="#000" stroke-miterlimit="10" stroke-width=".5960864" d="M107.492 42.34c0-6.86-5.558-12.414-12.414-12.414S82.664 35.48 82.664 42.34c0 6.855 5.559 12.41 12.414 12.41 6.856 0 12.414-5.555 12.414-12.41Zm0 0"/><use xlink:href="#d" x="91.354" y="45.894"/><path fill="#f2f2f2" d="M45.328 42.34c0-6.86-5.558-12.414-12.414-12.414S20.5 35.48 20.5 42.34c0 6.855 5.559 12.41 12.414 12.41 6.856 0 12.414-5.555 12.414-12.41m0 0"/><g clip-path="url(#e)"><path fill="none" stroke="#000" stroke-miterlimit="10" stroke-width="3.1777984000000004" d="M45.328 42.34c0-6.86-5.558-12.414-12.414-12.414S20.5 35.48 20.5 42.34c0 6.855 5.559 12.41 12.414 12.41 6.856 0 12.414-5.555 12.414-12.41Zm0 0"/></g><g clip-path="url(#f)"><path fill="none" stroke="#fff" stroke-miterlimit="10" stroke-width="1.9866224000000001" d="M45.328 42.34c0-6.86-5.558-12.414-12.414-12.414S20.5 35.48 20.5 42.34c0 6.855 5.559 12.41 12.414 12.41 6.856 0 12.414-5.555 12.414-12.41Zm0 0"/></g><use xlink:href="#g" x="30.153" y="45.729"/><path fill="none" stroke="#000" stroke-miterlimit="10" stroke-width=".5960864" d="M7.063 42.34h11.632"/><path stroke="#000" stroke-linejoin="round" stroke-miterlimit="10" stroke-width=".5960864" d="M19.605 42.34c-1.14-.23-2.28-.688-3.652-1.485 1.371 1.028 1.371 1.942 0 2.97 1.371-.802 2.512-1.259 3.652-1.485Zm0 0"/><path fill="#f2f2f2" stroke="#000" stroke-miterlimit="10" stroke-width=".5960864" d="M178.133 42.34c0-6.86-5.559-12.414-12.414-12.414-6.856 0-12.414 5.554-12.414 12.414 0 6.855 5.558 12.41 12.414 12.41s12.414-5.555 12.414-12.41Zm0 0"/><use xlink:href="#h" x="162.203" y="45.729"/><path fill="none" stroke="#000" stroke-miterlimit="10" stroke-width=".5960864" d="M106.086 35.984c16.422-9.484 32.203-9.484 47.574-.609"/><path stroke="#000" stroke-linejoin="round" stroke-miterlimit="10" stroke-width=".59607444" d="M154.453 35.832c-.875-.766-1.637-1.734-2.422-3.11.672 1.575.215 2.364-1.484 2.571 1.586-.008 2.8.168 3.906.539Zm0 0"/><use xlink:href="#i" x="127.773" y="25.264"/><path fill="none" stroke="#000" stroke-miterlimit="10" stroke-width=".5960864" d="M154.71 48.695c-16.42 9.48-32.202 9.48-47.573.606"/><path stroke="#000" stroke-linejoin="round" stroke-miterlimit="10" stroke-width=".59607444" d="M106.344 48.844c.875.77 1.636 1.734 2.422 3.113-.672-1.578-.215-2.367 1.484-2.574-1.586.008-2.8-.168-3.906-.54Zm0 0"/><use xlink:href="#j" x="128.268" y="66.308"/><path fill="none" stroke="#000" stroke-miterlimit="10" stroke-width=".5960864" d="M45.926 42.34h35.23"/><path stroke="#000" stroke-linejoin="round" stroke-miterlimit="10" stroke-width=".5960864" d="M82.07 42.34c-1.144-.23-2.285-.688-3.656-1.485 1.371 1.028 1.371 1.942 0 2.97 1.371-.802 2.512-1.259 3.656-1.485Zm0 0"/><use xlink:href="#c" x="61.83" y="38.731"/><path fill="none" stroke="#000" stroke-miterlimit="10" stroke-width=".5960864" d="M173.89 52.074C203.837 87.766 8.618 96.086 24.138 53.441"/><path stroke="#000" stroke-linejoin="round" stroke-miterlimit="10" stroke-width=".5960804199999999" d="M24.45 52.582c-.606.996-1.427 1.914-2.645 2.93 1.433-.938 2.293-.625 2.789 1.015-.281-1.562-.32-2.793-.145-3.945Zm0 0"/><use xlink:href="#c" x="102.161" y="89.875"/></svg>