<svg xmlns="http://www.w3.org/2000/svg" xmlns:xlink="http://www.w3.org/1999/xlink" width="138.64" height="88" viewBox="0 0 138.64 88"><defs><path id="c" d="M7.125 0v-.312h-.172c-.61 0-.734-.063-.844-.391L3.953-6.922c-.047-.125-.062-.187-.219-.187-.171 0-.203.046-.25.187L1.438-.969c-.188.5-.579.657-1.125.657V0l1.015-.031L2.468 0v-.312c-.484 0-.734-.25-.734-.5 0-.032 0-.125.016-.157l.453-1.297h2.453L5.188-.75a.6.6 0 0 1 .03.14c0 .298-.562.298-.827.298V0c.359-.031 1.062-.031 1.437-.031ZM4.547-2.578H2.313l1.109-3.219Zm0 0"/><path id="d" d="M6.469-1.812c0-.875-.813-1.61-1.922-1.735.969-.187 1.656-.828 1.656-1.562 0-.86-.922-1.672-2.203-1.672H.36v.297h.234c.765 0 .781.109.781.468V-.78c0 .36-.016.469-.781.469H.359V0H4.25c1.328 0 2.219-.89 2.219-1.812M5.234-5.11c0 .64-.484 1.468-1.593 1.468H2.203v-2.437c0-.328.016-.406.485-.406h1.234c.969 0 1.312.843 1.312 1.375m.235 3.28c0 .704-.516 1.517-1.532 1.517h-1.25c-.468 0-.484-.063-.484-.391v-2.719h1.875c.984 0 1.39.922 1.39 1.594m0 0"/><path id="e" d="M3.703-3.75c-.172-.375-.469-.64-.906-.64C1.625-4.39.39-2.939.39-1.485.39-.547.938.109 1.719.109c.203 0 .703-.046 1.297-.75.078.422.422.75.906.75.344 0 .562-.234.734-.546a6.5 6.5 0 0 0 .297-.985c0-.094-.094-.094-.125-.094-.094 0-.11.032-.14.172-.172.64-.344 1.235-.75 1.235-.266 0-.297-.266-.297-.453 0-.22.015-.297.125-.735.109-.422.125-.516.218-.906l.36-1.39c.062-.266.062-.298.062-.329 0-.172-.11-.265-.281-.265-.234 0-.39.218-.422.437m-.64 2.563c-.047.187-.047.203-.204.375-.437.546-.843.703-1.125.703-.484 0-.625-.547-.625-.938 0-.5.313-1.719.547-2.172.297-.594.75-.953 1.14-.953.657 0 .798.813.798.875s-.031.11-.031.172Zm0 0"/><path id="f" d="M2.375-6.781c0-.016 0-.11-.125-.11-.234 0-.953.079-1.219.094-.078.016-.187.016-.187.203 0 .11.094.11.234.11.484 0 .5.078.5.172 0 .078-.094.406-.14.625L.625-2.453c-.125.5-.156.656-.156 1C.469-.5 1 .109 1.734.109c1.172 0 2.391-1.484 2.391-2.906 0-.906-.531-1.594-1.328-1.594-.453 0-.86.282-1.156.594Zm-.937 3.75c.062-.219.062-.235.156-.344.484-.656.937-.797 1.187-.797.36 0 .625.297.625.938 0 .578-.328 1.718-.5 2.093-.328.672-.797 1.032-1.172 1.032-.343 0-.671-.266-.671-1 0-.188 0-.375.156-1Zm0 0"/><path id="g" d="M3.938-3.781c-.157 0-.297 0-.438.14a.6.6 0 0 0-.187.391c0 .234.187.344.374.344.282 0 .563-.235.563-.625 0-.5-.469-.86-1.172-.86C1.734-4.39.406-2.969.406-1.562c0 .89.578 1.671 1.61 1.671 1.422 0 2.25-1.046 2.25-1.171 0-.063-.047-.125-.11-.125-.047 0-.078.015-.125.093-.797.985-1.875.985-2 .985-.625 0-.89-.485-.89-1.078 0-.407.203-1.375.53-2 .313-.563.86-.985 1.407-.985.344 0 .719.125.86.39m0 0"/><path id="h" d="M1.406-2.25c.328.14.61.14.844.14.266 0 .813 0 .813-.312 0-.234-.344-.265-.735-.265-.203 0-.547.015-.922.187-.218-.125-.39-.312-.39-.578 0-.61.968-.969 1.859-.969.172 0 .531 0 .922.281.11.079.125.094.203.094.125 0 .266-.125.266-.265 0-.188-.61-.563-1.282-.563-1.14 0-2.218.672-2.218 1.422 0 .422.359.672.39.703-.578.328-.89.89-.89 1.344 0 .64.562 1.25 1.609 1.25C3.188.219 3.75-.656 3.75-.812c0-.047-.047-.094-.11-.094-.046 0-.078.047-.109.078-.125.219-.375.594-1.562.594-.61 0-1.453-.157-1.453-.86 0-.343.28-.86.89-1.156m.328-.14c.22-.079.438-.079.594-.079.25 0 .297 0 .469.047-.14.078-.156.094-.547.094-.219 0-.328 0-.516-.063m0 0"/><clipPath id="a"><path d="M0 .113h91v87.774H0Zm0 0"/></clipPath><clipPath id="b"><path d="M0 .113h74V80H0Zm0 0"/></clipPath></defs><path fill="#f2f2f2" d="M45.21 39.11c0-6.86-5.562-12.422-12.42-12.422-6.86 0-12.423 5.562-12.423 12.421 0 6.86 5.563 12.422 12.422 12.422S45.211 45.97 45.211 39.11m0 0"/><g clip-path="url(#a)"><path fill="none" stroke="#000" stroke-miterlimit="10" stroke-width="3.17974308" d="M45.21 39.11c0-6.86-5.562-12.422-12.42-12.422-6.86 0-12.423 5.562-12.423 12.421 0 6.86 5.563 12.422 12.422 12.422S45.211 45.97 45.211 39.11Zm0 0"/></g><g clip-path="url(#b)"><path fill="none" stroke="#fff" stroke-miterlimit="10" stroke-width="1.98783813" d="M45.21 39.11c0-6.86-5.562-12.422-12.42-12.422-6.86 0-12.423 5.562-12.423 12.421 0 6.86 5.563 12.422 12.422 12.422S45.211 45.97 45.211 39.11Zm0 0"/></g><use xlink:href="#c" x="29.062" y="42.667"/><path fill="none" stroke="#000" stroke-miterlimit="10" stroke-width=".59645118" d="M6.922 39.11h11.637"/><path stroke="#000" stroke-linejoin="round" stroke-miterlimit="10" stroke-width=".59645118" d="M19.473 39.11c-1.145-.227-2.285-.684-3.657-1.485 1.372 1.027 1.372 1.941 0 2.969 1.372-.797 2.512-1.254 3.657-1.485Zm0 0"/><path fill="#f2f2f2" stroke="#000" stroke-miterlimit="10" stroke-width=".59645118" d="M115.89 39.11c0-6.86-5.558-12.422-12.417-12.422-6.864 0-12.422 5.562-12.422 12.421 0 6.86 5.558 12.422 12.422 12.422 6.859 0 12.418-5.562 12.418-12.422Zm0 0"/><use xlink:href="#d" x="99.953" y="42.503"/><path fill="none" stroke="#000" stroke-miterlimit="10" stroke-width=".59645118" d="M44.062 32.602c16.434-9.422 32.016-9.375 47.348-.461"/><path stroke="#000" stroke-linejoin="round" stroke-miterlimit="10" stroke-width=".59642726" d="M92.2 32.602c-.876-.774-1.634-1.743-2.415-3.125.668 1.578.207 2.37-1.496 2.57 1.59-.004 2.809.176 3.91.555Zm0 0"/><use xlink:href="#e" x="65.655" y="21.961"/><path fill="none" stroke="#000" stroke-miterlimit="10" stroke-width=".59645118" d="M92.457 45.469c-16.379 9.523-31.96 9.57-47.344.754"/><path stroke="#000" stroke-linejoin="round" stroke-miterlimit="10" stroke-width=".5964212799999999" d="M44.32 45.766c.88.765 1.64 1.73 2.434 3.109-.68-1.574-.223-2.367 1.476-2.578-1.585.012-2.804-.16-3.91-.531Zm0 0"/><use xlink:href="#f" x="66.148" y="63.159"/><path fill="none" stroke="#000" stroke-miterlimit="10" stroke-width=".59645118" d="M29.418 26.535c-5.438-20.3 12.18-20.3 7.309-2.129"/><path stroke="#000" stroke-linejoin="round" stroke-miterlimit="10" stroke-width=".59645118" d="M36.492 25.29c.516-1.048 1.254-2.032 2.38-3.15-1.349 1.06-2.231.82-2.868-.769.418 1.531.562 2.754.488 3.918Zm0 0"/><use xlink:href="#g" x="30.637" y="7.699"/><path fill="none" stroke="#000" stroke-miterlimit="10" stroke-width=".59645118" d="M111.648 48.852c26.34 31.39-101.242 38.738-87.644 1.367"/><path stroke="#000" stroke-linejoin="round" stroke-miterlimit="10" stroke-width=".5964392199999999" d="M24.32 49.36c-.61.995-1.43 1.913-2.648 2.93 1.433-.938 2.293-.626 2.793 1.015-.285-1.563-.324-2.793-.145-3.946Zm0 0"/><use xlink:href="#h" x="70.338" y="83.068"/></svg>