<svg xmlns="http://www.w3.org/2000/svg" xmlns:xlink="http://www.w3.org/1999/xlink" width="117.49" height="65.9" viewBox="0 0 117.49 65.9"><defs><path id="a" d="M7.11 0v-.312h-.173c-.593 0-.734-.063-.843-.391l-2.14-6.203c-.048-.125-.079-.203-.235-.203s-.188.062-.235.203L1.422-.97c-.172.5-.563.657-1.11.657V0l1.016-.031L2.468 0v-.312c-.5 0-.75-.25-.75-.5 0-.032.016-.125.032-.157l.453-1.297h2.453L5.172-.75a.6.6 0 0 1 .031.14c0 .298-.547.298-.812.298V0c.359-.031 1.047-.031 1.422-.031ZM4.546-2.562H2.313l1.109-3.235Zm0 0"/><path id="d" d="M6.453-1.812c0-.86-.812-1.61-1.906-1.735.953-.187 1.64-.812 1.64-1.547 0-.875-.906-1.687-2.203-1.687H.36v.312h.235c.765 0 .781.11.781.469v5.219c0 .36-.016.469-.781.469H.359V0H4.25c1.313 0 2.203-.89 2.203-1.812M5.234-5.094c0 .625-.484 1.469-1.593 1.469H2.203v-2.453c0-.328.016-.39.485-.39h1.234c.953 0 1.312.843 1.312 1.374m.235 3.266c0 .703-.516 1.516-1.547 1.516H2.687c-.468 0-.484-.063-.484-.391v-2.703h1.86c.984 0 1.406.922 1.406 1.578m0 0"/><path id="e" d="M3.703-3.75c-.187-.375-.469-.64-.922-.64-1.156 0-2.39 1.468-2.39 2.906C.39-.547.938.109 1.719.109 1.922.11 2.406.063 3-.64a.91.91 0 0 0 .906.75c.344 0 .578-.234.735-.546.172-.36.297-.97.297-.985 0-.094-.079-.094-.11-.094-.11 0-.11.032-.14.172-.172.657-.36 1.235-.766 1.235-.266 0-.297-.25-.297-.453 0-.22.031-.297.14-.735.11-.422.126-.516.22-.89l.343-1.391c.078-.281.078-.297.078-.344 0-.172-.125-.265-.281-.265-.25 0-.39.218-.422.437m-.64 2.563C3-1 3-.984 2.859-.812c-.437.546-.843.703-1.125.703-.5 0-.64-.547-.64-.938 0-.484.328-1.719.547-2.172.312-.578.765-.953 1.156-.953.64 0 .781.813.781.875a.6.6 0 0 1-.031.172Zm0 0"/><path id="f" d="M2.375-6.781s0-.11-.125-.11c-.234 0-.953.079-1.219.11-.078 0-.187.015-.187.187 0 .125.094.125.234.125.484 0 .5.063.5.172 0 .063-.094.406-.14.61L.625-2.453c-.125.5-.156.656-.156 1C.469-.5.984.109 1.719.109c1.172 0 2.406-1.484 2.406-2.906 0-.906-.531-1.594-1.328-1.594-.453 0-.86.297-1.156.594Zm-.937 3.75c.062-.219.062-.235.156-.344.484-.64.922-.797 1.187-.797.36 0 .625.297.625.938 0 .578-.328 1.718-.515 2.109-.328.656-.782 1.016-1.172 1.016-.328 0-.657-.266-.657-1 0-.188 0-.375.157-1Zm0 0"/><path id="g" d="M3.922-3.766c-.156 0-.297 0-.422.141a.49.49 0 0 0-.187.375c0 .25.187.36.374.36.282 0 .547-.25.547-.641 0-.485-.468-.86-1.171-.86C1.719-4.39.406-2.969.406-1.562c0 .89.578 1.671 1.61 1.671 1.422 0 2.25-1.046 2.25-1.171a.134.134 0 0 0-.125-.125c-.047 0-.063.015-.125.093-.782.985-1.86.985-1.985.985-.625 0-.89-.485-.89-1.078 0-.407.203-1.375.53-1.985.313-.562.86-1 1.407-1 .328 0 .719.14.844.406m0 0"/><clipPath id="b"><path d="M45 .094h71.98v65.613H45Zm0 0"/></clipPath><clipPath id="c"><path d="M62 .094h54.98v65.613H62Zm0 0"/></clipPath></defs><path fill="#f2f2f2" stroke="#000" stroke-miterlimit="10" stroke-width=".5954166399999999" d="M44.832 38.395c0-6.848-5.55-12.399-12.398-12.399s-12.399 5.55-12.399 12.399c0 6.847 5.55 12.398 12.399 12.398 6.847 0 12.398-5.55 12.398-12.398Zm0 0"/><use xlink:href="#a" x="28.713" y="41.946"/><path fill="none" stroke="#000" stroke-miterlimit="10" stroke-width=".5954166399999999" d="M6.91 38.395h11.617"/><path stroke="#000" stroke-linejoin="round" stroke-miterlimit="10" stroke-width=".5954166399999999" d="M19.437 38.395c-1.14-.227-2.28-.684-3.648-1.485 1.367 1.028 1.367 1.942 0 2.969 1.367-.8 2.508-1.258 3.648-1.484Zm0 0"/><path fill="#f2f2f2" d="M115.395 38.395c0-6.848-5.551-12.399-12.403-12.399-6.847 0-12.398 5.55-12.398 12.399 0 6.847 5.55 12.398 12.398 12.398 6.852 0 12.403-5.55 12.403-12.398m0 0"/><g clip-path="url(#b)"><path fill="none" stroke="#000" stroke-miterlimit="10" stroke-width="3.1742278400000004" d="M115.395 38.395c0-6.848-5.551-12.399-12.403-12.399-6.847 0-12.398 5.55-12.398 12.399 0 6.847 5.55 12.398 12.398 12.398 6.852 0 12.403-5.55 12.403-12.398Zm0 0"/></g><g clip-path="url(#c)"><path fill="none" stroke="#fff" stroke-miterlimit="10" stroke-width="1.9843902400000002" d="M115.395 38.395c0-6.848-5.551-12.399-12.403-12.399-6.847 0-12.398 5.55-12.398 12.399 0 6.847 5.55 12.398 12.398 12.398 6.852 0 12.403-5.55 12.403-12.398Zm0 0"/></g><use xlink:href="#d" x="99.482" y="41.782"/><path fill="none" stroke="#000" stroke-miterlimit="10" stroke-width=".5954166399999999" d="M43.43 32.047c16.347-9.508 31.902-9.555 47.261-.75"/><path stroke="#000" stroke-linejoin="round" stroke-miterlimit="10" stroke-width=".59538674" d="M91.48 31.75c-.875-.766-1.636-1.73-2.425-3.102.675 1.57.222 2.364-1.477 2.57 1.586-.011 2.8.16 3.902.532Zm0 0"/><use xlink:href="#e" x="64.941" y="21.276"/><path fill="none" stroke="#000" stroke-miterlimit="10" stroke-width=".5954166399999999" d="M91.742 44.89c-16.41 9.407-31.965 9.36-47.265.462"/><path stroke="#000" stroke-linejoin="round" stroke-miterlimit="10" stroke-width=".59539272" d="M43.688 44.89c.87.774 1.628 1.739 2.41 3.118-.668-1.574-.211-2.363 1.488-2.563-1.582.004-2.797-.175-3.898-.554Zm0 0"/><use xlink:href="#f" x="65.434" y="62.402"/><path fill="none" stroke="#000" stroke-miterlimit="10" stroke-width=".5954166399999999" d="M29.148 26.129c-5.308-19.8 11.88-19.8 7.141-2.125"/><path stroke="#000" stroke-linejoin="round" stroke-miterlimit="10" stroke-width=".59541066" d="M36.055 24.883c.515-1.043 1.25-2.024 2.375-3.14-1.344 1.054-2.227.82-2.864-.77.414 1.53.563 2.75.489 3.91Zm0 0"/><use xlink:href="#g" x="30.287" y="7.674"/></svg>