<svg xmlns="http://www.w3.org/2000/svg" xmlns:xlink="http://www.w3.org/1999/xlink" width="214.85" height="95.17" viewBox="0 0 214.85 95.17"><defs><path id="a" d="M7.078 0v-.312h-.172c-.593 0-.734-.063-.843-.391L3.938-6.875c-.063-.125-.079-.203-.235-.203s-.187.062-.234.203L1.422-.969c-.172.5-.578.657-1.11.657V0l1.016-.031L2.453 0v-.312c-.484 0-.734-.235-.734-.5 0-.032.015-.125.015-.141l.454-1.297h2.437l.531 1.516a.4.4 0 0 1 .032.125c0 .297-.563.297-.829.297V0c.36-.031 1.047-.031 1.422-.031ZM4.516-2.562h-2.22l1.11-3.204Zm0 0"/><path id="d" d="M4.922-1.844c0-.984-.64-1.797-1.469-1.984l-1.265-.313c-.626-.14-1-.671-1-1.25 0-.687.53-1.296 1.296-1.296 1.657 0 1.875 1.625 1.938 2.062 0 .063 0 .125.11.125.124 0 .124-.047.124-.234V-6.72c0-.172 0-.25-.11-.25-.062 0-.077.016-.14.14l-.343.563c-.297-.296-.704-.703-1.579-.703-1.109 0-1.937.875-1.937 1.922 0 .828.531 1.547 1.297 1.813.11.03.61.156 1.312.328.266.062.563.125.828.5.22.25.313.578.313.906 0 .703-.5 1.406-1.328 1.406-.281 0-1.031-.047-1.563-.531-.562-.531-.593-1.156-.61-1.516 0-.093-.077-.093-.109-.093-.14 0-.14.062-.14.234v1.984c0 .157 0 .235.11.235.077 0 .077-.016.155-.125 0 0 .032-.047.36-.563.297.328.937.688 1.812.688 1.157 0 1.938-.969 1.938-2.063m0 0"/><path id="e" d="M6.422-1.812c0-.86-.797-1.594-1.906-1.72.968-.187 1.64-.812 1.64-1.546 0-.86-.906-1.672-2.187-1.672H.359v.313h.235c.765 0 .781.109.781.468v5.203c0 .344-.016.454-.781.454H.359V0h3.86c1.328 0 2.203-.875 2.203-1.812M5.203-5.078c0 .64-.484 1.469-1.578 1.469H2.188v-2.438c0-.328.03-.39.484-.39h1.234c.953 0 1.297.843 1.297 1.359m.234 3.266c0 .703-.515 1.5-1.53 1.5H2.671c-.453 0-.485-.063-.485-.391v-2.688h1.86c.984 0 1.39.907 1.39 1.579m0 0"/><path id="f" d="M3.688-3.734c-.188-.36-.47-.625-.907-.625-1.156 0-2.39 1.453-2.39 2.89C.39-.547.938.11 1.703.11c.203 0 .703-.046 1.281-.734a.925.925 0 0 0 .907.734c.343 0 .578-.234.734-.546.172-.36.297-.954.297-.97 0-.109-.094-.109-.125-.109-.094 0-.11.047-.14.188-.157.64-.344 1.219-.75 1.219-.266 0-.298-.25-.298-.453 0-.22.032-.297.141-.735.094-.406.125-.516.203-.89l.36-1.376c.078-.28.078-.296.078-.343 0-.156-.125-.266-.297-.266-.235 0-.375.219-.407.438m-.641 2.562c-.063.172-.063.188-.203.36-.438.546-.844.703-1.11.703-.5 0-.64-.547-.64-.922 0-.5.312-1.719.547-2.172.312-.578.75-.938 1.14-.938.64 0 .781.797.781.86a.6.6 0 0 1-.03.172Zm0 0"/><path id="g" d="M2.36-6.75s0-.11-.126-.11c-.234 0-.953.079-1.203.11-.078 0-.187.016-.187.188 0 .125.078.125.234.125.469 0 .484.062.484.171 0 .063-.078.407-.125.61L.626-2.438c-.125.485-.156.657-.156 1C.469-.5.984.11 1.719.11c1.172 0 2.375-1.468 2.375-2.89 0-.906-.516-1.578-1.313-1.578-.453 0-.86.28-1.156.593Zm-.922 3.734c.046-.218.046-.234.14-.343.484-.641.938-.782 1.188-.782.359 0 .625.297.625.922 0 .578-.328 1.719-.5 2.094-.328.656-.782 1.016-1.172 1.016-.344 0-.657-.266-.657-1 0-.188 0-.375.157-1Zm0 0"/><path id="h" d="M3.906-3.75c-.156 0-.297 0-.437.14a.5.5 0 0 0-.172.376c0 .25.172.343.36.343.296 0 .562-.234.562-.625 0-.484-.469-.843-1.172-.843-1.328 0-2.64 1.406-2.64 2.797C.406-.672.983.109 2 .109c1.422 0 2.25-1.046 2.25-1.171 0-.047-.062-.125-.125-.125-.047 0-.062.015-.125.093-.781.985-1.86.985-1.969.985-.625 0-.89-.485-.89-1.078 0-.407.187-1.36.53-1.97.298-.562.845-.984 1.392-.984.328 0 .703.125.843.391m0 0"/><path id="i" d="M1.39-2.234c.329.125.61.125.844.125.266 0 .813 0 .813-.297 0-.235-.344-.266-.719-.266-.219 0-.562.016-.922.188C1.172-2.61 1-2.797 1-3.062c0-.594.969-.954 1.86-.954.156 0 .515 0 .906.266.109.094.14.11.203.11.125 0 .265-.126.265-.266 0-.188-.593-.563-1.265-.563-1.14 0-2.203.657-2.203 1.407 0 .421.343.671.39.703-.578.328-.906.875-.906 1.328 0 .64.563 1.25 1.61 1.25 1.312 0 1.859-.875 1.859-1.016a.107.107 0 0 0-.11-.11c-.046 0-.078.048-.093.079-.141.219-.375.594-1.563.594-.594 0-1.437-.157-1.437-.86 0-.328.28-.86.875-1.14m.329-.141c.234-.078.437-.078.61-.078.233 0 .28 0 .452.047-.14.078-.172.078-.547.078-.203 0-.328 0-.515-.047m0 0"/><clipPath id="b"><path d="M.855 0H91v94.348H.855Zm0 0"/></clipPath><clipPath id="c"><path d="M.855 0H74v79H.855Zm0 0"/></clipPath></defs><path fill="#f2f2f2" stroke="#000" stroke-miterlimit="10" stroke-width=".5928273" d="M116.043 38.129c0-6.82-5.527-12.348-12.348-12.348-6.816 0-12.343 5.528-12.343 12.348 0 6.816 5.527 12.344 12.343 12.344 6.82 0 12.348-5.528 12.348-12.344Zm0 0"/><use xlink:href="#a" x="99.993" y="41.665"/><path fill="#f2f2f2" d="M45.79 38.129c0-6.82-5.528-12.348-12.349-12.348-6.816 0-12.343 5.528-12.343 12.348 0 6.816 5.527 12.344 12.343 12.344 6.82 0 12.348-5.528 12.348-12.344m0 0"/><g clip-path="url(#b)"><path fill="none" stroke="#000" stroke-miterlimit="10" stroke-width="3.1604238000000002" d="M45.79 38.129c0-6.82-5.528-12.348-12.349-12.348-6.816 0-12.343 5.528-12.343 12.348 0 6.816 5.527 12.344 12.343 12.344 6.82 0 12.348-5.528 12.348-12.344Zm0 0"/></g><g clip-path="url(#c)"><path fill="none" stroke="#fff" stroke-miterlimit="10" stroke-width="1.97576055" d="M45.79 38.129c0-6.82-5.528-12.348-12.349-12.348-6.816 0-12.343 5.528-12.343 12.348 0 6.816 5.527 12.344 12.343 12.344 6.82 0 12.348-5.528 12.348-12.344Zm0 0"/></g><use xlink:href="#d" x="30.696" y="41.501"/><path fill="none" stroke="#000" stroke-miterlimit="10" stroke-width=".5928273" d="M7.734 38.129h11.567"/><path stroke="#000" stroke-linejoin="round" stroke-miterlimit="10" stroke-width=".5928273" d="M20.207 38.129c-1.137-.227-2.27-.684-3.633-1.477 1.363 1.024 1.363 1.93 0 2.953 1.363-.796 2.496-1.25 3.633-1.476Zm0 0"/><path fill="#f2f2f2" stroke="#000" stroke-miterlimit="10" stroke-width=".5928273" d="M186.297 38.129c0-6.82-5.527-12.348-12.348-12.348-6.816 0-12.344 5.528-12.344 12.348 0 6.816 5.528 12.344 12.344 12.344 6.82 0 12.348-5.528 12.348-12.344Zm0 0"/><use xlink:href="#e" x="170.454" y="41.501"/><path fill="none" stroke="#000" stroke-miterlimit="10" stroke-width=".5928273" d="M114.645 31.809c16.332-9.43 32.027-9.43 47.316-.602"/><path stroke="#000" stroke-linejoin="round" stroke-miterlimit="10" stroke-width=".59281534" d="M162.746 31.66c-.871-.765-1.625-1.726-2.41-3.098.672 1.567.215 2.356-1.477 2.56 1.579-.009 2.79.167 3.887.538Zm0 0"/><use xlink:href="#f" x="136.213" y="21.148"/><path fill="none" stroke="#000" stroke-miterlimit="10" stroke-width=".5928273" d="M163.004 44.45c-16.332 9.429-32.027 9.429-47.317.6"/><path stroke="#000" stroke-linejoin="round" stroke-miterlimit="10" stroke-width=".59281534" d="M114.902 44.598c.868.765 1.625 1.726 2.41 3.093-.671-1.566-.218-2.351 1.473-2.554-1.574.008-2.785-.168-3.883-.54Zm0 0"/><use xlink:href="#g" x="136.705" y="61.968"/><path fill="none" stroke="#000" stroke-miterlimit="10" stroke-width=".5928273" d="M100.426 25.918c-5.285-19.719 11.824-19.719 7.11-2.117"/><path stroke="#000" stroke-linejoin="round" stroke-miterlimit="10" stroke-width=".5928273" d="M107.3 24.676c.512-1.04 1.247-2.016 2.368-3.13-1.34 1.056-2.219.817-2.852-.76.414 1.519.559 2.734.485 3.89Zm0 0"/><use xlink:href="#h" x="101.559" y="7.541"/><path fill="none" stroke="#000" stroke-miterlimit="10" stroke-width=".5928273" d="M46.379 38.129h43.469"/><path stroke="#000" stroke-linejoin="round" stroke-miterlimit="10" stroke-width=".5928273" d="M90.758 38.129c-1.137-.227-2.27-.684-3.633-1.477 1.363 1.024 1.363 1.93 0 2.953 1.363-.796 2.496-1.25 3.633-1.476Zm0 0"/><use xlink:href="#i" x="66.415" y="34.541"/><path fill="none" stroke="#000" stroke-miterlimit="10" stroke-width=".5928273" d="M182.078 47.812c31.473 37.508-173.7 46.239-157.363 1.36"/><path stroke="#000" stroke-linejoin="round" stroke-miterlimit="10" stroke-width=".59282132" d="M25.023 48.316c-.601.993-1.418 1.903-2.628 2.91 1.425-.93 2.28-.617 2.773 1.012-.281-1.554-.32-2.777-.145-3.922Zm0 0"/><use xlink:href="#i" x="106.821" y="87.087"/></svg>