<svg xmlns="http://www.w3.org/2000/svg" xmlns:xlink="http://www.w3.org/1999/xlink" width="199.99" height="84.14" viewBox="0 0 199.99 84.14"><defs><path id="c" d="M7.063 0v-.312H6.89c-.594 0-.735-.063-.844-.391L3.922-6.86c-.047-.125-.063-.203-.219-.203s-.187.062-.25.203L1.422-.97c-.172.5-.578.657-1.11.657V0l1.016-.031L2.453 0v-.312c-.484 0-.734-.235-.734-.5 0-.032 0-.125.015-.141l.454-1.297h2.437l.516 1.516a.4.4 0 0 1 .03.14c0 .282-.546.282-.812.282V0c.36-.031 1.047-.031 1.422-.031ZM4.515-2.547h-2.22l1.11-3.219Zm0 0"/><path id="d" d="M6.422-1.797c0-.86-.813-1.61-1.906-1.719.953-.187 1.64-.828 1.64-1.546 0-.86-.906-1.672-2.187-1.672H.359v.312h.235c.75 0 .781.11.781.453v5.203c0 .344-.031.454-.781.454H.359V0h3.86C5.53 0 6.422-.875 6.422-1.797M5.203-5.063c0 .625-.484 1.454-1.578 1.454H2.188v-2.422c0-.328.015-.39.484-.39H3.89c.953 0 1.312.827 1.312 1.359m.234 3.25c0 .704-.515 1.5-1.53 1.5H2.671c-.469 0-.485-.062-.485-.39v-2.688h1.86c.969 0 1.39.922 1.39 1.579m0 0"/><path id="e" d="M6.563-2.297c0-.094 0-.172-.141-.172-.11 0-.11.063-.11.156-.078 1.422-1.14 2.22-2.218 2.22-.594 0-2.532-.329-2.532-3.266 0-2.953 1.922-3.282 2.532-3.282 1.078 0 1.953.891 2.14 2.329.032.14.032.171.172.171.157 0 .157-.03.157-.234v-2.344c0-.156 0-.234-.11-.234-.047 0-.078 0-.156.125l-.5.719c-.36-.344-.875-.844-1.813-.844-1.843 0-3.437 1.562-3.437 3.578 0 2.047 1.61 3.594 3.437 3.594 1.61 0 2.579-1.375 2.579-2.516m0 0"/><path id="f" d="M3.672-3.734c-.172-.36-.453-.625-.906-.625C1.609-4.36.39-2.906.39-1.47.39-.547.938.11 1.703.11c.203 0 .688-.046 1.281-.734a.9.9 0 0 0 .907.734c.343 0 .562-.234.718-.546.172-.344.297-.954.297-.97 0-.109-.078-.109-.11-.109-.109 0-.109.047-.14.188-.172.64-.343 1.219-.75 1.219-.265 0-.297-.25-.297-.453 0-.22.016-.297.125-.735.11-.406.125-.5.22-.875l.358-1.39c.063-.266.063-.297.063-.329 0-.171-.11-.265-.281-.265-.235 0-.39.218-.422.422m-.64 2.562c-.048.172-.048.203-.188.36C2.406-.266 2-.11 1.719-.11c-.485 0-.625-.547-.625-.922 0-.5.312-1.703.547-2.157.297-.593.75-.953 1.14-.953.64 0 .781.813.781.875 0 .047-.015.11-.03.157Zm0 0"/><path id="g" d="M2.36-6.734c0-.016 0-.11-.126-.11-.234 0-.953.078-1.203.094-.078.016-.187.031-.187.203 0 .125.078.125.234.125.469 0 .484.063.484.156 0 .079-.078.407-.14.61L.625-2.438c-.125.5-.156.657-.156 1C.469-.5.984.11 1.719.11c1.156 0 2.375-1.468 2.375-2.89 0-.89-.532-1.578-1.313-1.578-.453 0-.86.28-1.156.593ZM1.421-3c.062-.219.062-.25.156-.36.484-.64.922-.78 1.188-.78.343 0 .609.296.609.921 0 .594-.312 1.719-.5 2.094-.328.656-.781 1.016-1.156 1.016-.344 0-.657-.266-.657-1 0-.188 0-.375.157-.985Zm0 0"/><path id="h" d="M3.906-3.75c-.156 0-.297 0-.437.14a.54.54 0 0 0-.172.391c0 .235.172.344.36.344.28 0 .546-.234.546-.64 0-.485-.453-.844-1.156-.844-1.328 0-2.64 1.406-2.64 2.797C.406-.672.968.109 2 .109c1.406 0 2.234-1.046 2.234-1.171 0-.047-.046-.125-.109-.125-.047 0-.078.03-.125.109-.781.969-1.86.969-1.984.969-.61 0-.875-.485-.875-1.078 0-.407.187-1.36.53-1.97.298-.562.845-.984 1.392-.984.328 0 .703.125.843.391m0 0"/><path id="i" d="M1.39-2.234c.329.14.61.14.844.14.266 0 .797 0 .797-.312 0-.235-.344-.266-.719-.266-.203 0-.546.016-.906.188C1.172-2.61 1-2.797 1-3.062c0-.594.969-.954 1.86-.954.156 0 .515 0 .906.282.109.078.125.093.203.093.125 0 .265-.125.265-.265 0-.188-.609-.563-1.28-.563-1.126 0-2.188.657-2.188 1.407 0 .437.343.671.39.703-.578.328-.906.875-.906 1.328 0 .64.563 1.25 1.61 1.25 1.312 0 1.859-.875 1.859-1.016 0-.062-.047-.094-.11-.094a.11.11 0 0 0-.093.063c-.141.234-.375.594-1.563.594-.61 0-1.437-.157-1.437-.844 0-.344.265-.86.875-1.156m.329-.125c.218-.079.437-.094.593-.094.25 0 .297.015.47.062-.157.063-.173.079-.548.079-.218 0-.328 0-.515-.047m0 0"/><clipPath id="a"><path d="M1.008 0H91v83.29H1.008Zm0 0"/></clipPath><clipPath id="b"><path d="M1.008 15H74v68.29H1.008Zm0 0"/></clipPath></defs><path fill="#f2f2f2" d="M45.875 56.133c0-6.809-5.52-12.328-12.328-12.328-6.809 0-12.328 5.52-12.328 12.328s5.52 12.328 12.328 12.328 12.328-5.52 12.328-12.328m0 0"/><g clip-path="url(#a)"><path fill="none" stroke="#000" stroke-miterlimit="10" stroke-width="3.1557374400000002" d="M45.875 56.133c0-6.809-5.52-12.328-12.328-12.328-6.809 0-12.328 5.52-12.328 12.328s5.52 12.328 12.328 12.328 12.328-5.52 12.328-12.328Zm0 0"/></g><g clip-path="url(#b)"><path fill="none" stroke="#fff" stroke-miterlimit="10" stroke-width="1.97283084" d="M45.875 56.133c0-6.809-5.52-12.328-12.328-12.328-6.809 0-12.328 5.52-12.328 12.328s5.52 12.328 12.328 12.328 12.328-5.52 12.328-12.328Zm0 0"/></g><use xlink:href="#c" x="29.849" y="59.664"/><path fill="none" stroke="#000" stroke-miterlimit="10" stroke-width=".59194824" d="M7.875 56.133h11.55"/><path stroke="#000" stroke-linejoin="round" stroke-miterlimit="10" stroke-width=".59194824" d="M20.332 56.133c-1.133-.227-2.27-.68-3.629-1.473 1.36 1.02 1.36 1.926 0 2.95 1.36-.797 2.496-1.25 3.629-1.477Zm0 0"/><path fill="#f2f2f2" stroke="#000" stroke-miterlimit="10" stroke-width=".59194824" d="M116.023 56.133c0-6.809-5.52-12.328-12.328-12.328-6.804 0-12.324 5.52-12.324 12.328s5.52 12.328 12.324 12.328c6.809 0 12.328-5.52 12.328-12.328Zm0 0"/><use xlink:href="#d" x="100.206" y="59.501"/><path fill="#f2f2f2" stroke="#000" stroke-miterlimit="10" stroke-width=".59194824" d="M186.176 56.133c0-6.809-5.52-12.328-12.328-12.328-6.809 0-12.329 5.52-12.329 12.328s5.52 12.328 12.329 12.328c6.808 0 12.328-5.52 12.328-12.328Zm0 0"/><use xlink:href="#e" x="170.288" y="59.501"/><path fill="none" stroke="#000" stroke-miterlimit="10" stroke-width=".59194824" d="M44.734 49.676c16.313-9.352 31.778-9.305 46.993-.457"/><path stroke="#000" stroke-linejoin="round" stroke-miterlimit="10" stroke-width=".5919243200000001" d="M92.508 49.672c-.863-.766-1.617-1.727-2.395-3.098.664 1.567.207 2.352-1.48 2.551 1.574-.004 2.781.176 3.875.547Zm0 0"/><use xlink:href="#f" x="66.166" y="39.114"/><path fill="none" stroke="#000" stroke-miterlimit="10" stroke-width=".59194824" d="M92.766 62.445c-16.254 9.45-31.72 9.5-46.989.746"/><path stroke="#000" stroke-linejoin="round" stroke-miterlimit="10" stroke-width=".5919243200000001" d="M44.992 62.738c.871.762 1.63 1.719 2.414 3.086-.672-1.562-.222-2.351 1.469-2.558-1.578.011-2.785-.16-3.883-.528Zm0 0"/><use xlink:href="#g" x="66.656" y="80.001"/><path fill="none" stroke="#000" stroke-miterlimit="10" stroke-width=".59194824" d="M116.32 56.133h43.7"/><path stroke="#000" stroke-linejoin="round" stroke-miterlimit="10" stroke-width=".59194824" d="M160.93 56.133c-1.137-.227-2.27-.68-3.63-1.473 1.36 1.02 1.36 1.926 0 2.95 1.36-.797 2.493-1.25 3.63-1.477Zm0 0"/><use xlink:href="#h" x="136.638" y="52.551"/><path fill="none" stroke="#000" stroke-miterlimit="10" stroke-width=".59194824" d="M181.96 46.465C198.685.52 8.52.293 24.833 45.105"/><path stroke="#000" stroke-linejoin="round" stroke-miterlimit="10" stroke-width=".5919422599999999" d="M25.14 45.96c-.171-1.144-.136-2.366.145-3.917-.492 1.629-1.344 1.941-2.77 1.012 1.212 1.004 2.024 1.918 2.626 2.906Zm0 0"/><use xlink:href="#i" x="101.303" y="19.721"/></svg>