<svg xmlns="http://www.w3.org/2000/svg" xmlns:xlink="http://www.w3.org/1999/xlink" width="188.35" height="52.11" viewBox="0 0 188.35 52.11"><defs><path id="a" d="M7.031 0v-.297h-.187c-.578 0-.719-.078-.828-.406l-2.11-6.11c-.062-.14-.078-.203-.234-.203s-.188.063-.235.204L1.408-.953c-.173.5-.563.64-1.094.656V0l1-.031L2.438 0v-.297c-.485 0-.735-.25-.735-.5 0-.031.016-.14.016-.156l.453-1.281h2.422l.515 1.5a.4.4 0 0 1 .032.14c0 .297-.547.297-.813.297V0c.36-.031 1.047-.031 1.406-.031ZM4.484-2.531H2.281L3.375-5.72Zm0 0"/><path id="b" d="M6.375-1.797c0-.844-.797-1.578-1.89-1.703.952-.187 1.624-.812 1.624-1.531 0-.86-.89-1.657-2.171-1.657H.358v.297h.235c.75 0 .765.11.765.47v5.155c0 .36-.015.47-.765.47H.359V0h3.829C5.5 0 6.374-.875 6.374-1.797M5.156-5.03c0 .625-.468 1.453-1.562 1.453H2.172V-6c0-.312.015-.39.484-.39h1.219c.938 0 1.281.827 1.281 1.359m.235 3.234c0 .688-.5 1.5-1.516 1.5H2.656c-.469 0-.484-.078-.484-.406v-2.672h1.844c.968 0 1.375.922 1.375 1.578m0 0"/><path id="e" d="M6.516-2.281c0-.094 0-.172-.125-.172-.11 0-.11.062-.125.156C6.187-.89 5.14-.094 4.078-.094c-.594 0-2.516-.328-2.516-3.25s1.907-3.265 2.5-3.265c1.079 0 1.938.89 2.141 2.328.016.14.016.172.156.172.157 0 .157-.032.157-.235v-2.328c0-.172 0-.234-.11-.234-.031 0-.078 0-.156.11l-.484.734c-.375-.36-.875-.844-1.813-.844-1.828 0-3.406 1.562-3.406 3.562C.547-1.328 2.14.22 3.953.22c1.61 0 2.563-1.36 2.563-2.5m0 0"/><path id="f" d="M3.656-3.703c-.172-.36-.469-.625-.906-.625-1.14 0-2.36 1.437-2.36 2.875C.39-.531.939.109 1.688.109c.204 0 .688-.046 1.282-.734a.895.895 0 0 0 .89.734c.344 0 .563-.234.72-.546.171-.344.296-.938.296-.97 0-.093-.078-.093-.11-.093-.109 0-.109.047-.14.172-.172.64-.344 1.219-.75 1.219-.266 0-.297-.25-.297-.453 0-.22.031-.297.14-.72.11-.405.126-.515.204-.89l.36-1.36c.062-.28.062-.296.062-.343 0-.156-.11-.266-.282-.266-.234 0-.375.22-.406.438m-.64 2.531c-.047.188-.047.203-.188.375-.437.531-.844.688-1.11.688-.5 0-.624-.532-.624-.922 0-.485.312-1.688.531-2.14.313-.579.75-.938 1.14-.938.641 0 .766.797.766.859 0 .063-.015.11-.031.156Zm0 0"/><path id="g" d="M2.344-6.687c0-.016 0-.11-.125-.11-.235 0-.938.078-1.203.094-.079.016-.188.016-.188.203 0 .11.094.11.235.11.468 0 .5.077.5.171 0 .063-.094.407-.141.61L.625-2.422c-.125.485-.172.656-.172.985C.453-.5.984.109 1.703.109c1.156 0 2.36-1.468 2.36-2.875 0-.89-.516-1.562-1.297-1.562-.453 0-.86.281-1.157.578Zm-.922 3.703c.062-.22.062-.235.14-.344.485-.64.922-.781 1.188-.781.344 0 .61.28.61.922 0 .578-.329 1.703-.5 2.078-.329.656-.766 1-1.157 1-.328 0-.656-.266-.656-.985 0-.187 0-.375.156-1Zm0 0"/><path id="h" d="M3.875-3.719c-.156 0-.297 0-.422.14a.55.55 0 0 0-.187.376c0 .234.187.344.375.344.28 0 .547-.235.547-.625 0-.485-.47-.844-1.157-.844-1.328 0-2.625 1.406-2.625 2.781C.406-.672.97.11 1.984.11 3.391.11 4.22-.937 4.22-1.047a.134.134 0 0 0-.125-.125c-.047 0-.063.016-.125.094-.781.969-1.844.969-1.953.969-.625 0-.891-.485-.891-1.063 0-.406.203-1.36.531-1.969.297-.546.844-.968 1.375-.968.344 0 .719.125.844.39m0 0"/><clipPath id="c"><path d="M116 0h70.45v51.234H116Zm0 0"/></clipPath><clipPath id="d"><path d="M132 0h54.45v51.234H132Zm0 0"/></clipPath></defs><path fill="#f2f2f2" stroke="#000" stroke-miterlimit="10" stroke-width=".58795958" d="M45.535 24.328c0-6.762-5.484-12.246-12.246-12.246s-12.246 5.484-12.246 12.246S26.527 36.57 33.289 36.57s12.246-5.48 12.246-12.242Zm0 0"/><use xlink:href="#a" x="29.616" y="27.835"/><path fill="none" stroke="#000" stroke-miterlimit="10" stroke-width=".58795958" d="M8.086 24.328h11.469"/><path stroke="#000" stroke-linejoin="round" stroke-miterlimit="10" stroke-width=".58795958" d="M20.457 24.328c-1.125-.226-2.254-.676-3.605-1.465 1.351 1.012 1.351 1.914 0 2.93 1.351-.79 2.48-1.238 3.605-1.465Zm0 0"/><path fill="#f2f2f2" stroke="#000" stroke-miterlimit="10" stroke-width=".58795958" d="M115.211 24.328c0-6.762-5.484-12.246-12.246-12.246s-12.242 5.484-12.242 12.246 5.48 12.242 12.242 12.242 12.246-5.48 12.246-12.242Zm0 0"/><use xlink:href="#b" x="99.498" y="27.672"/><path fill="#f2f2f2" d="M184.887 24.328c0-6.762-5.48-12.246-12.242-12.246-6.766 0-12.247 5.484-12.247 12.246s5.48 12.242 12.247 12.242c6.761 0 12.242-5.48 12.242-12.242m0 0"/><g clip-path="url(#c)"><path fill="none" stroke="#000" stroke-miterlimit="10" stroke-width="3.13447348" d="M184.887 24.328c0-6.762-5.48-12.246-12.242-12.246-6.766 0-12.247 5.484-12.247 12.246s5.481 12.242 12.247 12.242c6.761 0 12.242-5.48 12.242-12.242Zm0 0"/></g><g clip-path="url(#d)"><path fill="none" stroke="#fff" stroke-miterlimit="10" stroke-width="1.9595375300000002" d="M184.887 24.328c0-6.762-5.48-12.246-12.242-12.246-6.766 0-12.247 5.484-12.247 12.246s5.481 12.242 12.247 12.242c6.761 0 12.242-5.48 12.242-12.242Zm0 0"/></g><use xlink:href="#e" x="169.107" y="27.672"/><path fill="none" stroke="#000" stroke-miterlimit="10" stroke-width=".58795958" d="M44.148 18.059c16.196-9.352 31.762-9.352 46.926-.598"/><path stroke="#000" stroke-linejoin="round" stroke-miterlimit="10" stroke-width=".58794164" d="M91.852 17.91c-.86-.758-1.614-1.71-2.387-3.07.664 1.555.21 2.336-1.465 2.539 1.562-.008 2.766.164 3.852.531Zm0 0"/><use xlink:href="#f" x="65.538" y="7.486"/><path fill="none" stroke="#000" stroke-miterlimit="10" stroke-width=".58795958" d="M92.11 30.598c-16.2 9.351-31.766 9.351-46.926.597"/><path stroke="#000" stroke-linejoin="round" stroke-miterlimit="10" stroke-width=".58794164" d="M44.402 30.742c.864.758 1.614 1.711 2.391 3.07-.664-1.55-.215-2.332 1.46-2.535-1.562.008-2.765-.164-3.85-.535Zm0 0"/><use xlink:href="#g" x="66.026" y="47.971"/><path fill="none" stroke="#000" stroke-miterlimit="10" stroke-width=".58795958" d="M115.504 24.328h43.113"/><path stroke="#000" stroke-linejoin="round" stroke-miterlimit="10" stroke-width=".58795958" d="M159.516 24.328c-1.125-.226-2.25-.676-3.602-1.465 1.352 1.012 1.352 1.914 0 2.93 1.352-.79 2.477-1.238 3.602-1.465Zm0 0"/><use xlink:href="#h" x="135.538" y="20.769"/></svg>