<svg xmlns="http://www.w3.org/2000/svg" xmlns:xlink="http://www.w3.org/1999/xlink" width="300.2" height="102.22" viewBox="0 0 300.2 102.22"><defs><path id="a" d="M7.094 0v-.312h-.188c-.593 0-.718-.063-.828-.391l-2.14-6.188c-.047-.125-.063-.187-.235-.187-.156 0-.187.062-.234.187L1.422-.969c-.172.5-.578.657-1.11.657V0l1.016-.031L2.468 0v-.312c-.5 0-.75-.235-.75-.5 0-.032.016-.125.016-.141l.47-1.297H4.64l.515 1.516a.4.4 0 0 1 .032.125c0 .297-.547.297-.813.297V0c.36-.031 1.047-.031 1.422-.031ZM4.53-2.562H2.297l1.11-3.22Zm0 0"/><path id="d" d="M4.938-1.844c0-.984-.657-1.797-1.485-2L2.188-4.14a1.31 1.31 0 0 1-1-1.265c0-.688.53-1.297 1.312-1.297 1.64 0 1.86 1.625 1.922 2.078.016.063.016.11.125.11.125 0 .125-.048.125-.235v-1.984c0-.172 0-.235-.11-.235-.078 0-.078 0-.156.125l-.343.563c-.297-.282-.704-.688-1.579-.688-1.093 0-1.937.86-1.937 1.922 0 .813.531 1.531 1.297 1.797.11.047.625.172 1.312.328.266.078.563.14.844.516.203.25.297.578.297.906 0 .703-.484 1.406-1.313 1.406-.296 0-1.046-.047-1.562-.531-.578-.531-.61-1.172-.625-1.516 0-.109-.078-.109-.11-.109-.14 0-.14.078-.14.25v1.984c0 .157 0 .235.11.235.077 0 .077-.016.155-.125 0 0 .032-.047.36-.563.297.328.937.688 1.812.688 1.157 0 1.954-.969 1.954-2.063m0 0"/><path id="e" d="M6.438-1.812c0-.86-.813-1.594-1.907-1.72.953-.187 1.64-.827 1.64-1.546 0-.86-.905-1.672-2.202-1.672H.359v.297h.235c.765 0 .781.11.781.469v5.218c0 .344-.016.454-.781.454H.359V0h3.875c1.313 0 2.204-.875 2.204-1.812m-1.22-3.266c0 .625-.484 1.453-1.593 1.453H2.203v-2.422c0-.328.016-.406.485-.406h1.218c.953 0 1.313.844 1.313 1.375m.235 3.266c0 .687-.516 1.5-1.531 1.5H2.687c-.468 0-.484-.063-.484-.391v-2.703h1.86c.968 0 1.39.922 1.39 1.594m0 0"/><path id="f" d="M6.578-2.297c0-.11 0-.172-.125-.172-.11 0-.11.063-.125.156C6.25-.905 5.188-.092 4.11-.092c-.593 0-2.53-.329-2.53-3.282S3.5-6.672 4.108-6.672c1.079 0 1.954.906 2.157 2.344.015.14.015.172.156.172.156 0 .156-.032.156-.235v-2.343c0-.172 0-.235-.11-.235-.046 0-.077 0-.155.11l-.5.734c-.36-.36-.875-.844-1.813-.844-1.86 0-3.453 1.563-3.453 3.594C.547-1.328 2.157.219 4 .219c1.61 0 2.578-1.375 2.578-2.516m0 0"/><path id="g" d="M3.688-3.734c-.172-.375-.47-.641-.907-.641-1.156 0-2.39 1.453-2.39 2.906C.39-.547.938.11 1.719.11 1.906.11 2.406.063 3-.64c.078.422.422.75.89.75.36 0 .579-.234.735-.546.172-.36.297-.954.297-.985 0-.094-.078-.094-.11-.094-.109 0-.109.047-.14.188-.172.64-.344 1.219-.75 1.219-.266 0-.297-.25-.297-.453 0-.22.016-.297.125-.735.11-.422.125-.516.219-.89l.36-1.391c.062-.266.062-.297.062-.328 0-.172-.125-.266-.282-.266-.234 0-.39.219-.421.438m-.641 2.562C3-1 3-.984 2.844-.812 2.406-.266 2-.11 1.734-.11c-.5 0-.64-.547-.64-.922 0-.5.328-1.719.547-2.172.312-.578.75-.953 1.156-.953.64 0 .781.812.781.875s-.031.11-.031.172Zm0 0"/><path id="h" d="M2.36-6.75c0-.016 0-.11-.126-.11-.234 0-.953.079-1.203.094-.078.016-.187.016-.187.204 0 .109.094.109.234.109.469 0 .5.078.5.172 0 .062-.094.406-.14.61L.625-2.438c-.125.484-.156.64-.156 1C.469-.5.984.109 1.719.109c1.172 0 2.39-1.468 2.39-2.906 0-.89-.53-1.578-1.312-1.578-.469 0-.875.297-1.172.594Zm-.922 3.734c.062-.218.062-.234.14-.343.484-.641.938-.797 1.188-.797.359 0 .625.297.625.937 0 .578-.328 1.719-.5 2.094-.328.656-.782 1.016-1.172 1.016-.328 0-.657-.266-.657-1 0-.188 0-.375.157-1Zm0 0"/><path id="i" d="M3.922-3.766c-.156 0-.297 0-.438.141a.6.6 0 0 0-.187.39c0 .235.187.344.375.344.281 0 .547-.234.547-.625 0-.484-.453-.859-1.157-.859C1.72-4.375.406-2.953.406-1.562.406-.672.984.109 2 .109c1.422 0 2.25-1.046 2.25-1.171 0-.063-.062-.125-.11-.125-.062 0-.077.015-.14.093-.781.985-1.86.985-1.969.985-.625 0-.89-.485-.89-1.078 0-.407.187-1.36.53-1.985.313-.562.845-.984 1.392-.984.343 0 .718.125.859.39m0 0"/><path id="j" d="M1.39-2.25c.329.14.61.14.86.14s.797 0 .797-.296c0-.25-.344-.281-.719-.281a2.3 2.3 0 0 0-.922.187c-.234-.11-.39-.297-.39-.562 0-.61.968-.97 1.859-.97.156 0 .5 0 .906.282.11.078.125.094.188.094.14 0 .281-.125.281-.266 0-.187-.61-.562-1.281-.562-1.14 0-2.203.672-2.203 1.422 0 .421.359.671.39.703-.578.328-.906.875-.906 1.328 0 .64.578 1.25 1.625 1.25 1.297 0 1.86-.875 1.86-1.016 0-.062-.063-.11-.11-.11s-.078.048-.11.079c-.14.219-.374.594-1.562.594-.594 0-1.437-.157-1.437-.86 0-.328.28-.86.875-1.156m.329-.125a1.9 1.9 0 0 1 .61-.094c.25 0 .28.016.468.063-.156.078-.172.078-.547.078-.219 0-.344 0-.531-.047m0 0"/><clipPath id="b"><path d="M.738 0H91v82H.738Zm0 0"/></clipPath><clipPath id="c"><path d="M.738 0H74v65H.738Zm0 0"/></clipPath></defs><path fill="#f2f2f2" stroke="#000" stroke-miterlimit="10" stroke-width=".59347314" d="M116.32 24.547c0-6.824-5.535-12.36-12.36-12.36-6.823 0-12.358 5.536-12.358 12.36 0 6.828 5.535 12.36 12.359 12.36s12.36-5.532 12.36-12.36Zm0 0"/><use xlink:href="#a" x="100.253" y="28.088"/><path fill="#f2f2f2" d="M45.988 24.547c0-6.824-5.531-12.36-12.36-12.36-6.823 0-12.355 5.536-12.355 12.36 0 6.828 5.532 12.36 12.356 12.36 6.828 0 12.36-5.532 12.36-12.36m0 0"/><g clip-path="url(#b)"><path fill="none" stroke="#000" stroke-miterlimit="10" stroke-width="3.1638668400000003" d="M45.988 24.547c0-6.824-5.531-12.36-12.36-12.36-6.823 0-12.355 5.536-12.355 12.36 0 6.828 5.532 12.36 12.356 12.36 6.828 0 12.36-5.532 12.36-12.36Zm0 0"/></g><g clip-path="url(#c)"><path fill="none" stroke="#fff" stroke-miterlimit="10" stroke-width="1.97791299" d="M45.988 24.547c0-6.824-5.531-12.36-12.36-12.36-6.823 0-12.355 5.536-12.355 12.36 0 6.828 5.532 12.36 12.356 12.36 6.828 0 12.36-5.532 12.36-12.36Zm0 0"/></g><use xlink:href="#d" x="30.882" y="27.924"/><path fill="none" stroke="#000" stroke-miterlimit="10" stroke-width=".59347314" d="M7.895 24.547h11.578"/><path stroke="#000" stroke-linejoin="round" stroke-miterlimit="10" stroke-width=".59347314" d="M20.383 24.547c-1.137-.227-2.274-.68-3.64-1.477 1.366 1.024 1.366 1.934 0 2.957 1.366-.797 2.503-1.254 3.64-1.48Zm0 0"/><path fill="#f2f2f2" stroke="#000" stroke-miterlimit="10" stroke-width=".59347314" d="M186.652 24.547c0-6.824-5.535-12.36-12.359-12.36-6.828 0-12.36 5.536-12.36 12.36 0 6.828 5.532 12.36 12.36 12.36 6.824 0 12.36-5.532 12.36-12.36Zm0 0"/><use xlink:href="#e" x="170.791" y="27.924"/><path fill="#f2f2f2" stroke="#000" stroke-miterlimit="10" stroke-width=".59347314" d="M256.98 24.547c0-6.824-5.53-12.36-12.359-12.36-6.824 0-12.36 5.536-12.36 12.36 0 6.828 5.536 12.36 12.36 12.36 6.828 0 12.36-5.532 12.36-12.36Zm0 0"/><use xlink:href="#f" x="241.053" y="27.924"/><path fill="none" stroke="#000" stroke-miterlimit="10" stroke-width=".59347314" d="M114.922 18.219c16.348-9.438 32.058-9.438 47.363-.602"/><path stroke="#000" stroke-linejoin="round" stroke-miterlimit="10" stroke-width=".5934552" d="M163.074 18.07c-.87-.765-1.629-1.726-2.41-3.097.668 1.566.215 2.355-1.48 2.558 1.582-.004 2.793.168 3.89.54Zm0 0"/><use xlink:href="#g" x="136.513" y="7.548"/><path fill="none" stroke="#000" stroke-miterlimit="10" stroke-width=".59347314" d="M163.332 30.875c-16.352 9.441-32.062 9.441-47.367.602"/><path stroke="#000" stroke-linejoin="round" stroke-miterlimit="10" stroke-width=".5934552" d="M115.18 31.023c.87.766 1.625 1.727 2.41 3.098-.668-1.566-.215-2.355 1.476-2.558-1.578.007-2.789-.168-3.886-.54Zm0 0"/><use xlink:href="#h" x="137.005" y="48.413"/><path fill="none" stroke="#000" stroke-miterlimit="10" stroke-width=".59347314" d="M186.945 24.547h43.817"/><path stroke="#000" stroke-linejoin="round" stroke-miterlimit="10" stroke-width=".59347314" d="M231.668 24.547c-1.137-.227-2.273-.68-3.637-1.477 1.364 1.024 1.364 1.934 0 2.957 1.364-.797 2.5-1.254 3.637-1.48Zm0 0"/><use xlink:href="#i" x="207.317" y="20.956"/><path fill="none" stroke="#000" stroke-miterlimit="10" stroke-width=".59347314" d="M46.582 24.547h43.516"/><path stroke="#000" stroke-linejoin="round" stroke-miterlimit="10" stroke-width=".59347314" d="M91.008 24.547c-1.137-.227-2.274-.68-3.637-1.477 1.363 1.024 1.363 1.934 0 2.957 1.363-.797 2.5-1.254 3.637-1.48Zm0 0"/><use xlink:href="#j" x="66.639" y="20.956"/><path fill="none" stroke="#000" stroke-miterlimit="10" stroke-width=".59347314" d="M252.758 34.242c45.613 54.36-251.723 66.906-227.867 1.36"/><path stroke="#000" stroke-linejoin="round" stroke-miterlimit="10" stroke-width=".59346118" d="M25.203 34.746c-.601.992-1.418 1.906-2.633 2.914 1.43-.93 2.282-.62 2.778 1.012-.282-1.555-.32-2.777-.145-3.926Zm0 0"/><use xlink:href="#j" x="144.729" y="87.595"/></svg>