<svg xmlns="http://www.w3.org/2000/svg" xmlns:xlink="http://www.w3.org/1999/xlink" width="77.91" height="82.77" viewBox="0 0 77.91 82.77"><defs><path id="a" d="M.953 0v-3.625H.5V0Zm0 0"/><path id="b" d="M2.422 0v-1.969c0-.437-.328-.703-.828-.703-.39 0-.64.14-.86.5v-.437h-.39V0h.422v-1.437c0-.532.28-.875.703-.875.328 0 .531.203.531.515V0Zm0 0"/><path id="c" d="M.766 0v-2.61H.344V0Zm.046-3v-.516H.298V-3Zm0 0"/><path id="d" d="M1.266 0v-.344c-.063.016-.125.016-.203.016-.172 0-.235-.047-.235-.234v-1.704h.438v-.343H.828v-.703H.422v.703h-.36v.343h.36v1.891c0 .266.172.406.5.406.11 0 .203 0 .344-.031m0 0"/><path id="e" d="M2.656-.016v-.312c-.047.016-.062.016-.094.016-.14 0-.218-.079-.218-.204v-1.453c0-.453-.344-.703-.985-.703-.625 0-1.015.235-1.03.844h.405c.047-.328.235-.469.61-.469s.593.14.593.39v.11c0 .172-.109.25-.437.281-.578.079-.672.094-.828.172-.313.11-.469.344-.469.672 0 .469.328.75.86.75.328 0 .656-.14.89-.39a.43.43 0 0 0 .422.343c.078 0 .156 0 .281-.047m-.719-.89c0 .375-.375.625-.78.625C.827-.281.64-.406.64-.687c0-.266.187-.391.625-.454.437-.062.53-.078.672-.14Zm0 0"/><path id="f" d="M.75 0v-3.625H.344V0Zm0 0"/><path id="g" d="M2.281-.734c0-.391-.219-.578-.734-.703l-.406-.094C.813-1.61.67-1.72.67-1.906c0-.235.204-.39.548-.39.328 0 .515.14.515.421h.438c0-.516-.344-.797-.938-.797-.609 0-1 .313-1 .781 0 .422.204.61.829.75l.39.11c.281.062.39.14.39.328 0 .25-.234.39-.609.39C.875-.312.656-.39.61-.796H.172c.016.61.36.875 1.031.875.656 0 1.078-.312 1.078-.812m0 0"/><path id="h" d="M2.547-1.187c0-.375-.031-.61-.11-.813-.156-.422-.562-.672-1.046-.672-.72 0-1.188.531-1.188 1.39 0 .845.453 1.36 1.172 1.36.61 0 1.016-.344 1.125-.875h-.422c-.11.344-.344.485-.687.485-.422 0-.75-.282-.766-.875Zm-.438-.36v.031H.641c.03-.468.328-.78.75-.78.406 0 .718.343.718.75m0 0"/><path id="i" d="M2.875-3.219v-.406H.453V0h.453v-1.656h1.735v-.407H.906v-1.156Zm0 0"/><path id="k" d="M3.688-1.75c0-1.172-.688-1.969-1.75-1.969-1.047 0-1.75.797-1.75 1.938C.188-.656.89.094 1.938.094c1.062 0 1.75-.781 1.75-1.844m-.47-.016c0 .875-.515 1.454-1.28 1.454-.766 0-1.282-.579-1.282-1.47 0-.89.516-1.515 1.281-1.515.782 0 1.282.625 1.282 1.531m0 0"/><path id="l" d="M2.422 0v-1.969c0-.437-.313-.703-.828-.703-.36 0-.594.11-.828.422v-1.375H.344V0h.422v-1.437c0-.532.265-.875.703-.875.297 0 .531.171.531.515V0Zm0 0"/><path id="m" d="M1.594-2.234v-.422c-.063-.016-.11-.016-.157-.016-.265 0-.468.156-.718.547v-.484H.344V0h.422v-1.344c0-.593.187-.89.828-.89m0 0"/><path id="n" d="M2.453-1.61c.047-.046.047-.062.047-.093s0-.047-.047-.078l-1.219-1.39h1.391c.406 0 .766.03.953.124.203.078.422.36.485.828h.203L4.109-3.39H.641c-.11 0-.157 0-.157.11 0 .047 0 .062.047.11L2-1.5.547-.172c-.063.047-.063.047-.063.094C.484 0 .563 0 .641 0h3.468l.157-1.234h-.203c-.079.562-.344.765-.485.843-.281.11-.89.11-.953.11H.985Zm0 0"/><path id="o" d="M1.906-1.375c.016-.094.094-.734.094-.781 0-.078-.078-.156-.172-.156-.11 0-.172.078-.172.156 0 .047.078.687.094.781l-.781-.453c-.047-.031-.063-.047-.11-.047-.078 0-.171.078-.171.188 0 .078.046.125.109.14.265.11.547.203.828.313-.281.093-.734.265-.812.297-.032.015-.125.046-.125.156s.093.187.171.187c.063 0 .204-.11.891-.515-.016.109-.094.734-.094.78 0 .079.063.157.172.157.094 0 .172-.062.172-.156 0-.047-.078-.688-.094-.781l.797.468c.031.032.047.047.094.047.078 0 .172-.078.172-.187 0-.078-.047-.14-.11-.156-.265-.11-.546-.204-.828-.297.281-.11.735-.266.813-.313.031-.016.125-.031.125-.14s-.094-.188-.172-.188c-.047 0-.063.016-.11.047Zm0 0"/><path id="r" d="M1.094-1.094c.218.078.375.078.547.078.187 0 .515 0 .515-.203 0-.156-.219-.172-.453-.172a1.6 1.6 0 0 0-.562.094h-.047S.906-1.359.906-1.53c0-.266.547-.407 1.063-.407.11 0 .343 0 .593.141.063.031.079.031.11.031.094 0 .187-.078.187-.171 0-.079-.062-.11-.109-.141a1.5 1.5 0 0 0-.719-.172c-.656 0-1.344.313-1.344.719 0 .156.094.265.22.343C.562-1 .452-.75.452-.561c0 .328.36.671 1.047.671.266 0 .531-.046.734-.14.297-.14.407-.344.407-.406 0-.047-.047-.079-.079-.079-.03 0-.046.032-.078.063-.14.203-.39.25-.906.25-.172 0-.906 0-.906-.39 0-.173.156-.376.422-.5m.812-.11c-.078.016-.156.016-.265.016h-.25a1 1 0 0 1 .297-.03c.078 0 .14 0 .218.015m0 0"/><clipPath id="j"><path d="M57 16h20.758v51H57Zm0 0"/></clipPath><clipPath id="p"><path d="M.063 15H26v52H.063Zm0 0"/></clipPath><clipPath id="q"><path d="M.063 28H22v25H.063Zm0 0"/></clipPath></defs><path fill="none" stroke="#000" stroke-miterlimit="10" stroke-width=".39789477" d="M14.8 37.598h20.923V16.676H14.8Zm0 0"/><use xlink:href="#a" x="19.466" y="6.934"/><use xlink:href="#b" x="20.847" y="6.934"/><use xlink:href="#c" x="23.609" y="6.934"/><use xlink:href="#d" x="24.712" y="6.934"/><use xlink:href="#c" x="26.093" y="6.934"/><use xlink:href="#e" x="27.196" y="6.934"/><use xlink:href="#f" x="29.958" y="6.934"/><use xlink:href="#g" x="18.685" y="12.894"/><use xlink:href="#d" x="21.149" y="12.894"/><use xlink:href="#e" x="22.53" y="12.894"/><use xlink:href="#d" x="25.292" y="12.894"/><use xlink:href="#h" x="26.599" y="12.894"/><use xlink:href="#g" x="29.36" y="12.894"/><path fill="none" stroke="#000" stroke-miterlimit="10" stroke-width=".39789477" d="M14.8 65.863h20.923V44.945H14.8Zm0 0"/><use xlink:href="#i" x="19.88" y="73.195"/><use xlink:href="#c" x="22.915" y="73.195"/><use xlink:href="#b" x="24.018" y="73.195"/><use xlink:href="#e" x="26.78" y="73.195"/><use xlink:href="#f" x="29.542" y="73.195"/><use xlink:href="#g" x="18.685" y="79.155"/><use xlink:href="#d" x="21.149" y="79.155"/><use xlink:href="#e" x="22.53" y="79.155"/><use xlink:href="#d" x="25.292" y="79.155"/><use xlink:href="#h" x="26.599" y="79.155"/><use xlink:href="#g" x="29.36" y="79.155"/><g clip-path="url(#j)"><path fill="none" stroke="#000" stroke-miterlimit="10" stroke-width=".39789477" d="M57.77 66.004h19.789V16.535h-19.79Zm0 0"/></g><use xlink:href="#k" x="61.465" y="40.109"/><use xlink:href="#d" x="65.33" y="40.109"/><use xlink:href="#l" x="66.691" y="40.109"/><use xlink:href="#h" x="69.453" y="40.109"/><use xlink:href="#m" x="72.215" y="40.109"/><use xlink:href="#g" x="61.087" y="46.069"/><use xlink:href="#d" x="63.551" y="46.069"/><use xlink:href="#e" x="64.932" y="46.069"/><use xlink:href="#d" x="67.694" y="46.069"/><use xlink:href="#h" x="69.001" y="46.069"/><use xlink:href="#g" x="71.763" y="46.069"/><path d="M46.316 41.27a.702.702 0 1 0-1.402 0 .7.7 0 1 0 1.402 0m0 0"/><use xlink:href="#n" x="43.985" y="36.86"/><use xlink:href="#o" x="48.746" y="34.855"/><path fill="#00f" d="M27.371 21.484a2.107 2.107 0 1 0-4.215-.004 2.107 2.107 0 0 0 4.215.004M27.371 32.79a2.107 2.107 0 1 0-4.214.003 2.107 2.107 0 0 0 4.214-.004m0 0"/><path fill="#007f00" d="M27.371 49.75a2.107 2.107 0 1 0-4.214.003 2.107 2.107 0 0 0 4.214-.003M21.715 61.059a2.107 2.107 0 1 0-4.215-.005 2.107 2.107 0 0 0 4.215.005M33.023 61.059a2.107 2.107 0 1 0-4.215-.004 2.107 2.107 0 0 0 4.215.004m0 0"/><path fill="none" stroke="#7f7f7f" stroke-miterlimit="10" stroke-width=".79479231" d="M37.164 27.137c5.211 0 1.207 12.855 7.281 13.926"/><path fill="#7f7f7f" stroke="#7f7f7f" stroke-miterlimit="10" stroke-width=".33506928" d="m36.2 27.137 1.316.992-.438-.992.438-.992Zm0 0"/><path fill="#7f7f7f" stroke="#7f7f7f" stroke-miterlimit="10" stroke-width=".08376648" d="m44.559 41.086-.137-.063.043.043-.055.028Zm0 0"/><path fill="#7f7f7f" stroke="#7f7f7f" stroke-miterlimit="10" stroke-width=".33505584000000005" d="m42.82 40.23-.457-1.582-.246 1.055-.949.531Zm0 0"/><path fill="none" stroke="#7f7f7f" stroke-miterlimit="10" stroke-width=".79479231" d="M37.164 55.406c5.211 0 1.207-12.86 7.281-13.93"/><path fill="#7f7f7f" stroke="#7f7f7f" stroke-miterlimit="10" stroke-width=".33506928" d="m36.2 55.406 1.316.992-.438-.992.438-.996Zm0 0"/><path fill="#7f7f7f" stroke="#7f7f7f" stroke-miterlimit="10" stroke-width=".08376648" d="m44.559 41.457-.149-.012.055.028-.043.047Zm0 0"/><path fill="#7f7f7f" stroke="#7f7f7f" stroke-miterlimit="10" stroke-width=".33505584000000005" d="m42.82 42.309-1.652-.004.95.53.245 1.06Zm0 0"/><path fill="none" stroke="#7f7f7f" stroke-miterlimit="10" stroke-width=".79479231" d="M47.758 41.27h8.57"/><path fill="#7f7f7f" stroke="#7f7f7f" stroke-miterlimit="10" stroke-width=".33506928" d="m46.797 41.27 1.316.996-.437-.996.437-.993ZM57.293 41.27l-1.316-.993.437.993-.437.996Zm0 0"/><g clip-path="url(#p)"><path fill="none" stroke="#690" stroke-miterlimit="10" stroke-width=".79479231" d="M14.605 55.406c-7.085-8.445-7.085-19.824 0-28.27"/></g><path fill="#333" d="m9.29 39.672-.638 2.09.637-.703.637.703Zm0 0"/><g clip-path="url(#q)"><path fill="none" stroke="#333" stroke-miterlimit="10" stroke-width=".7947763700000001" d="m9.29 39.672-.638 2.09.637-.703.637.703Zm0 0"/></g><use xlink:href="#r" x="3.374" y="43.216"/></svg>