<svg xmlns="http://www.w3.org/2000/svg" xmlns:xlink="http://www.w3.org/1999/xlink" width="80.36" height="69.18" viewBox="0 0 80.36 69.18"><defs><path id="a" d="M.953 0v-3.594H.5V0Zm0 0"/><path id="b" d="M2.39 0v-1.953c0-.422-.312-.703-.812-.703-.375 0-.625.156-.86.515v-.437H.345V0H.75v-1.422c0-.531.281-.875.703-.875.328 0 .531.203.531.516V0Zm0 0"/><path id="c" d="M.75 0v-2.578H.344V0Zm.063-2.969v-.515H.297v.515Zm0 0"/><path id="d" d="M1.25 0v-.344c-.047.016-.125.016-.203.016-.172 0-.219-.047-.219-.234V-2.25h.422v-.328H.828v-.703H.422v.703h-.36v.328h.36v1.875c0 .266.172.406.5.406.094 0 .187 0 .328-.031m0 0"/><path id="e" d="M2.64-.016v-.296h-.093c-.14 0-.219-.079-.219-.204v-1.437c0-.453-.344-.703-.969-.703s-1.015.25-1.046.844h.421c.032-.313.22-.47.61-.47.36 0 .578.141.578.391v.11c0 .172-.11.25-.438.281-.578.078-.671.094-.828.156-.297.125-.453.36-.453.672 0 .469.328.75.844.75.344 0 .656-.14.875-.39a.45.45 0 0 0 .437.343c.079 0 .141 0 .282-.047M1.923-.89c0 .375-.375.61-.781.61-.313 0-.5-.125-.5-.39 0-.282.172-.391.609-.454.438-.062.531-.078.672-.156Zm0 0"/><path id="f" d="M.75 0v-3.594H.328V0Zm0 0"/><path id="g" d="M1.39-3.594h-.265L-.047.094h.281Zm0 0"/><path id="h" d="M1.266-2.25v-.328H.844v-.406c0-.172.094-.266.281-.266.031 0 .047 0 .14.016v-.344c-.093-.016-.14-.031-.234-.031-.375 0-.593.218-.593.593v.438H.094v.328h.344V0h.406v-2.25ZM2.109 0v-2.578h-.406V0Zm.063-2.969v-.515h-.516v.515Zm0 0"/><path id="i" d="M2.266-.719c0-.39-.22-.578-.735-.703l-.39-.094C.797-1.594.656-1.703.656-1.89c0-.234.219-.39.547-.39s.516.156.516.422h.437c0-.516-.344-.797-.937-.797s-.985.312-.985.797c0 .39.204.593.813.734l.39.094c.282.078.391.156.391.343 0 .235-.234.375-.594.375C.86-.312.656-.39.594-.78H.172c.016.594.344.86 1.031.86.64 0 1.063-.298 1.063-.798m0 0"/><path id="j" d="M2.531-1.172c0-.375-.031-.61-.11-.797-.171-.422-.562-.687-1.046-.687-.719 0-1.172.531-1.172 1.375 0 .86.438 1.36 1.172 1.36.578 0 1-.345 1.094-.86h-.406c-.126.344-.344.469-.672.469-.438 0-.75-.266-.766-.86Zm-.437-.36s0 .016-.016.032H.641c.03-.469.312-.781.734-.781.406 0 .719.344.719.75m0 0"/><path id="l" d="M3.656-1.734c0-1.157-.687-1.938-1.734-1.938C.89-3.672.188-2.89.188-1.766S.89.094 1.922.094c1.047 0 1.734-.781 1.734-1.828m-.469-.016c0 .875-.515 1.438-1.265 1.438C1.156-.312.64-.875.64-1.766c0-.89.515-1.5 1.28-1.5.767 0 1.267.61 1.267 1.516m0 0"/><path id="m" d="M2.39 0v-1.953c0-.422-.312-.703-.812-.703-.36 0-.578.11-.828.437v-1.375H.344V0H.75v-1.422c0-.531.281-.875.703-.875.297 0 .531.172.531.516V0Zm0 0"/><path id="n" d="M1.578-2.219v-.422c-.062 0-.094-.015-.156-.015-.266 0-.469.156-.703.547v-.47H.344V0H.75v-1.344c0-.578.188-.86.828-.875m0 0"/><path id="o" d="M2.422-1.594c.062-.047.062-.062.062-.093 0-.032-.015-.047-.046-.079L1.218-3.14H2.61c.391 0 .75.032.938.125.203.079.422.36.484.829h.203L4.078-3.36H.625c-.094 0-.14 0-.14.109 0 .047 0 .063.03.11l1.47 1.656L.546-.172c-.063.047-.063.047-.063.094C.484 0 .547 0 .625 0h3.453l.156-1.234h-.203c-.078.562-.343.78-.484.843-.281.11-.89.11-.938.11H.97Zm0 0"/><path id="p" d="M1.89-1.36c.016-.093.094-.734.094-.765 0-.094-.078-.156-.171-.156-.11 0-.172.078-.172.14 0 .047.078.672.093.782L.97-1.812C.922-1.844.89-1.86.844-1.86c-.078 0-.156.078-.156.187 0 .078.046.125.093.14.282.11.563.204.828.298-.265.109-.718.265-.812.297-.031.015-.11.046-.11.156s.079.187.157.187c.062 0 .219-.094.89-.5a18 18 0 0 0-.093.782c0 .062.062.14.172.14.093 0 .171-.062.171-.156 0-.047-.078-.672-.093-.766l.78.469a.2.2 0 0 0 .095.031c.078 0 .172-.078.172-.187a.14.14 0 0 0-.11-.14c-.265-.11-.547-.204-.812-.298.265-.11.718-.265.797-.312.046-.016.124-.032.124-.14 0-.11-.093-.188-.171-.188-.032 0-.063.015-.11.046Zm0 0"/><path id="x" d="M1.078-1.078C1.297-1 1.453-1 1.625-1c.188 0 .516 0 .516-.203 0-.156-.22-.172-.453-.172a2 2 0 0 0-.563.078c-.016.016-.031.016-.031.016-.016 0-.203-.078-.203-.235 0-.265.562-.406 1.062-.406.094 0 .328 0 .594.14.062.032.062.032.11.032.077 0 .171-.078.171-.172 0-.078-.062-.11-.11-.125a1.3 1.3 0 0 0-.702-.187c-.657 0-1.328.312-1.328.718 0 .141.078.266.203.329-.328.203-.438.437-.438.625 0 .343.344.671 1.031.671.266 0 .532-.046.735-.14.281-.14.406-.344.406-.39 0-.063-.047-.095-.078-.095-.047 0-.063.032-.078.063-.156.203-.406.25-.906.25-.172 0-.907 0-.907-.375 0-.172.156-.375.422-.5m.813-.11c-.079.016-.157.016-.266.016-.062 0-.172 0-.234-.016.015 0 .125-.015.28-.015.079 0 .141 0 .22.016m0 0"/><clipPath id="k"><path d="M14 16h65.574v52.371H14Zm0 0"/></clipPath><clipPath id="q"><path d="M.156 36H37v26H.156Zm0 0"/></clipPath><clipPath id="r"><path d="M.156 36H31v32.371H.156Zm0 0"/></clipPath><clipPath id="s"><path d="M.156 36H43v32.371H.156Zm0 0"/></clipPath><clipPath id="t"><path d="M.156 10H37v31H.156Zm0 0"/></clipPath><clipPath id="u"><path d="M.156 14H37v29H.156Zm0 0"/></clipPath><clipPath id="v"><path d="M.156 19H16v39H.156Zm0 0"/></clipPath><clipPath id="w"><path d="M.156 25H14v25H.156Zm0 0"/></clipPath></defs><path fill="none" stroke="#000" stroke-miterlimit="10" stroke-width=".39432771" d="M16.984 37.273h20.73v-20.73h-20.73Zm0 0"/><use xlink:href="#a" x="16.406" y="6.886"/><use xlink:href="#b" x="17.774" y="6.886"/><use xlink:href="#c" x="20.512" y="6.886"/><use xlink:href="#d" x="21.604" y="6.886"/><use xlink:href="#c" x="22.973" y="6.886"/><use xlink:href="#e" x="24.066" y="6.886"/><use xlink:href="#f" x="26.803" y="6.886"/><use xlink:href="#g" x="27.896" y="6.886"/><use xlink:href="#h" x="29.265" y="6.886"/><use xlink:href="#b" x="31.726" y="6.886"/><use xlink:href="#e" x="34.463" y="6.886"/><use xlink:href="#f" x="37.2" y="6.886"/><use xlink:href="#i" x="20.831" y="12.793"/><use xlink:href="#d" x="23.268" y="12.793"/><use xlink:href="#e" x="24.637" y="12.793"/><use xlink:href="#d" x="27.374" y="12.793"/><use xlink:href="#j" x="28.669" y="12.793"/><use xlink:href="#i" x="31.406" y="12.793"/><path fill="none" stroke="#000" stroke-miterlimit="10" stroke-width=".39432771" d="M16.984 65.29h20.73V44.558h-20.73Zm0 0"/><g clip-path="url(#k)"><path fill="none" stroke="#000" stroke-miterlimit="10" stroke-width=".39432771" d="M58.645 16.344h20.73v51.828H14.941V41.559h43.704Zm0 0"/></g><use xlink:href="#l" x="52.499" y="54.415"/><use xlink:href="#d" x="56.329" y="54.415"/><use xlink:href="#m" x="57.678" y="54.415"/><use xlink:href="#j" x="60.415" y="54.415"/><use xlink:href="#n" x="63.152" y="54.415"/><use xlink:href="#i" x="52.125" y="60.322"/><use xlink:href="#d" x="54.562" y="60.322"/><use xlink:href="#e" x="55.931" y="60.322"/><use xlink:href="#d" x="58.668" y="60.322"/><use xlink:href="#j" x="59.963" y="60.322"/><use xlink:href="#i" x="62.7" y="60.322"/><path fill="none" stroke="#7f7f7f" stroke-miterlimit="10" stroke-width=".78766713" d="M58.645 41.559c-3.403-9.34-10.79-14.653-20.73-14.653"/><path fill="#7f7f7f" stroke="#7f7f7f" stroke-miterlimit="10" stroke-width=".7876193100000001" d="m49.453 29.82 1.32 1.715-.203-.918.934-.11Zm0 0"/><use xlink:href="#o" x="46.314" y="27.055"/><use xlink:href="#p" x="51.031" y="25.069"/><path fill="#00f" d="M29.438 21.305a2.089 2.089 0 1 0-2.086 2.09 2.09 2.09 0 0 0 2.085-2.09M29.438 32.512a2.087 2.087 0 1 0-2.086 2.086 2.086 2.086 0 0 0 2.085-2.086m0 0"/><path fill="#007f00" d="M29.438 49.32a2.089 2.089 0 1 0-2.086 2.09 2.09 2.09 0 0 0 2.085-2.09M23.836 60.527a2.087 2.087 0 1 0-4.176 0c0 1.153.934 2.086 2.086 2.086 1.156 0 2.09-.933 2.09-2.086M35.043 60.527a2.09 2.09 0 1 0-4.18 0c0 1.153.938 2.086 2.09 2.086s2.09-.933 2.09-2.086m0 0"/><path fill="#7f7f7f" d="M5.43 46.797a.493.493 0 1 0-.986 0 .493.493 0 0 0 .986 0M5.43 29.988a.493.493 0 1 0-.986.001.493.493 0 0 0 .986 0m0 0"/><g clip-path="url(#q)"><path fill="none" stroke="#7f7f7f" stroke-miterlimit="10" stroke-width=".78766713" d="M25.098 49.715c-7.602 1.344-12.88 1.289-19.563-2.57"/></g><g clip-path="url(#r)"><path fill="none" stroke="#7f7f7f" stroke-miterlimit="10" stroke-width=".78766713" d="M19.46 60.527c-7.62 0-14.523-5.418-14.523-13.039"/></g><g clip-path="url(#s)"><path fill="none" stroke="#7f7f7f" stroke-miterlimit="10" stroke-width=".78766713" d="M30.973 59.383c-9.61-5.551-20.141-2.375-25.692-11.988"/></g><g clip-path="url(#t)"><path fill="none" stroke="#7f7f7f" stroke-miterlimit="10" stroke-width=".78766713" d="M5.281 29.395c4.184-7.247 11.418-8.09 19.785-8.09"/></g><g clip-path="url(#u)"><path fill="none" stroke="#7f7f7f" stroke-miterlimit="10" stroke-width=".78766713" d="M5.281 29.395c3.95-6.84 13.254-1.973 20.09 1.972"/></g><g clip-path="url(#v)"><path fill="none" stroke="#7f7f7f" stroke-miterlimit="10" stroke-width=".78766713" d="M4.594 46.203c-3.07-5.32-4.047-10.98-.098-15.683"/></g><path fill="#333" d="m1.82 36.723-.496 2.109.586-.738.676.656Zm0 0"/><g clip-path="url(#w)"><path fill="none" stroke="#333" stroke-miterlimit="10" stroke-width=".7876193100000001" d="m1.82 36.723-.496 2.109.586-.738.676.656Zm0 0"/></g><use xlink:href="#x" x="3.614" y="40.057"/></svg>