<svg xmlns="http://www.w3.org/2000/svg" xmlns:xlink="http://www.w3.org/1999/xlink" width="63.33" height="82.77" viewBox="0 0 63.33 82.77"><defs><path id="a" d="M.953 0v-3.594H.5V0Zm0 0"/><path id="b" d="M2.39 0v-1.953c0-.422-.312-.703-.812-.703-.375 0-.625.156-.86.515v-.437H.345V0H.75v-1.422c0-.531.281-.875.703-.875.328 0 .531.203.531.516V0Zm0 0"/><path id="c" d="M.75 0v-2.578H.344V0Zm.063-2.969v-.515H.297v.515Zm0 0"/><path id="d" d="M1.25 0v-.344c-.047.016-.125.016-.203.016-.172 0-.219-.047-.219-.234V-2.25h.422v-.328H.828v-.703H.422v.703h-.36v.328h.36v1.875c0 .266.172.406.5.406.094 0 .187 0 .328-.031m0 0"/><path id="e" d="M2.64-.016v-.296h-.093c-.14 0-.219-.079-.219-.204v-1.437c0-.453-.344-.703-.969-.703s-1.015.25-1.046.844h.421c.032-.313.22-.47.61-.47.36 0 .578.141.578.391v.11c0 .172-.11.25-.438.281-.578.078-.671.094-.828.156-.297.125-.453.36-.453.672 0 .469.328.75.844.75.344 0 .656-.14.875-.39a.45.45 0 0 0 .437.343c.079 0 .141 0 .282-.047M1.923-.89c0 .375-.375.61-.781.61-.313 0-.5-.125-.5-.39 0-.282.172-.391.609-.454.438-.062.531-.078.672-.156Zm0 0"/><path id="f" d="M.75 0v-3.594H.328V0Zm0 0"/><path id="g" d="M2.266-.719c0-.39-.22-.578-.735-.703l-.39-.094C.797-1.594.656-1.703.656-1.89c0-.234.219-.39.547-.39s.516.156.516.422h.437c0-.516-.344-.797-.937-.797s-.985.312-.985.797c0 .39.204.593.813.734l.39.094c.282.078.391.156.391.343 0 .235-.234.375-.594.375C.86-.312.656-.39.594-.78H.172c.016.594.344.86 1.031.86.64 0 1.063-.298 1.063-.798m0 0"/><path id="h" d="M2.531-1.172c0-.375-.031-.61-.11-.797-.171-.422-.562-.687-1.046-.687-.719 0-1.172.531-1.172 1.375 0 .86.438 1.36 1.172 1.36.578 0 1-.345 1.094-.86h-.406c-.126.344-.344.469-.672.469-.438 0-.75-.266-.766-.86Zm-.437-.36s0 .016-.016.032H.641c.03-.469.312-.781.734-.781.406 0 .719.344.719.75m0 0"/><path id="i" d="M2.844-3.187v-.407H.438V0h.468v-1.64H2.61v-.391H.906v-1.156Zm0 0"/><path id="k" d="M3.656-1.734c0-1.157-.687-1.938-1.734-1.938C.89-3.672.188-2.89.188-1.766S.89.094 1.922.094c1.047 0 1.734-.781 1.734-1.828m-.469-.016c0 .875-.515 1.438-1.265 1.438C1.156-.312.64-.875.64-1.766c0-.89.515-1.5 1.28-1.5.767 0 1.267.61 1.267 1.516m0 0"/><path id="l" d="M2.39 0v-1.953c0-.422-.312-.703-.812-.703-.36 0-.578.11-.828.437v-1.375H.344V0H.75v-1.422c0-.531.281-.875.703-.875.297 0 .531.172.531.516V0Zm0 0"/><path id="m" d="M1.578-2.219v-.422c-.062 0-.094-.015-.156-.015-.266 0-.469.156-.703.547v-.47H.344V0H.75v-1.344c0-.578.188-.86.828-.875m0 0"/><path id="n" d="M2.422-1.594c.062-.047.062-.062.062-.093 0-.032-.015-.047-.046-.079L1.218-3.14H2.61c.391 0 .75.032.938.125.203.079.422.36.484.829h.203L4.078-3.36H.625c-.094 0-.14 0-.14.109 0 .047 0 .063.03.11l1.47 1.656L.546-.172c-.063.047-.063.047-.063.094C.484 0 .547 0 .625 0h3.453l.156-1.234h-.203c-.078.562-.343.78-.484.843-.281.11-.89.11-.938.11H.97Zm0 0"/><path id="o" d="M1.89-1.36c.016-.093.094-.734.094-.765 0-.094-.078-.156-.171-.156-.11 0-.172.078-.172.14 0 .047.078.672.093.782L.97-1.812C.922-1.844.89-1.86.844-1.86c-.078 0-.156.078-.156.187 0 .078.046.125.093.14.282.11.563.204.828.298-.265.109-.718.265-.812.297-.031.015-.11.046-.11.156s.079.187.157.187c.062 0 .219-.094.89-.5a18 18 0 0 0-.093.782c0 .062.062.14.172.14.093 0 .171-.062.171-.156 0-.047-.078-.672-.093-.766l.78.469a.2.2 0 0 0 .095.031c.078 0 .172-.078.172-.187a.14.14 0 0 0-.11-.14c-.265-.11-.547-.204-.812-.298.265-.11.718-.265.797-.312.046-.016.124-.032.124-.14 0-.11-.093-.188-.171-.188-.032 0-.063.015-.11.046Zm0 0"/><clipPath id="j"><path d="M42 16h20.668v51H42Zm0 0"/></clipPath></defs><path fill="none" stroke="#000" stroke-miterlimit="10" stroke-width=".39482247000000004" d="M.2 37.625h20.753V16.867H.2Zm0 0"/><use xlink:href="#a" x="4.824" y="7.2"/><use xlink:href="#b" x="6.194" y="7.2"/><use xlink:href="#c" x="8.935" y="7.2"/><use xlink:href="#d" x="10.029" y="7.2"/><use xlink:href="#c" x="11.399" y="7.2"/><use xlink:href="#e" x="12.494" y="7.2"/><use xlink:href="#f" x="15.234" y="7.2"/><use xlink:href="#g" x="4.05" y="13.114"/><use xlink:href="#d" x="6.49" y="13.114"/><use xlink:href="#e" x="7.86" y="13.114"/><use xlink:href="#d" x="10.601" y="13.114"/><use xlink:href="#h" x="11.897" y="13.114"/><use xlink:href="#g" x="14.638" y="13.114"/><path fill="none" stroke="#000" stroke-miterlimit="10" stroke-width=".39482247000000004" d="M.2 65.676h20.753V44.918H.2Zm0 0"/><use xlink:href="#i" x="5.236" y="72.949"/><use xlink:href="#c" x="8.247" y="72.949"/><use xlink:href="#b" x="9.342" y="72.949"/><use xlink:href="#e" x="12.082" y="72.949"/><use xlink:href="#f" x="14.823" y="72.949"/><use xlink:href="#g" x="4.05" y="78.863"/><use xlink:href="#d" x="6.49" y="78.863"/><use xlink:href="#e" x="7.86" y="78.863"/><use xlink:href="#d" x="10.601" y="78.863"/><use xlink:href="#h" x="11.897" y="78.863"/><use xlink:href="#g" x="14.638" y="78.863"/><g clip-path="url(#j)"><path fill="none" stroke="#000" stroke-miterlimit="10" stroke-width=".39482247000000004" d="M42.832 65.816h19.637v-49.09H42.832Zm0 0"/></g><use xlink:href="#k" x="46.499" y="40.118"/><use xlink:href="#d" x="50.334" y="40.118"/><use xlink:href="#l" x="51.685" y="40.118"/><use xlink:href="#h" x="54.425" y="40.118"/><use xlink:href="#m" x="57.166" y="40.118"/><use xlink:href="#g" x="46.125" y="46.033"/><use xlink:href="#d" x="48.565" y="46.033"/><use xlink:href="#e" x="49.935" y="46.033"/><use xlink:href="#d" x="52.676" y="46.033"/><use xlink:href="#h" x="53.972" y="46.033"/><use xlink:href="#g" x="56.713" y="46.033"/><path d="M31.469 41.273a.698.698 0 1 0-1.396-.003.698.698 0 0 0 1.396.003m0 0"/><use xlink:href="#n" x="29.155" y="36.895"/><use xlink:href="#o" x="33.878" y="34.906"/><path fill="#00f" d="M12.668 21.637a2.09 2.09 0 0 0-2.094-2.09 2.09 2.09 0 1 0 0 4.18 2.09 2.09 0 0 0 2.094-2.09M12.668 32.855a2.093 2.093 0 0 0-4.184 0 2.093 2.093 0 1 0 4.184 0m0 0"/><path fill="#007f00" d="M12.668 49.688a2.093 2.093 0 1 0-2.094 2.09 2.093 2.093 0 0 0 2.094-2.09M7.059 60.906a2.09 2.09 0 0 0-2.094-2.09 2.09 2.09 0 1 0 0 4.18 2.09 2.09 0 0 0 2.094-2.09M18.277 60.906a2.09 2.09 0 0 0-2.09-2.09 2.09 2.09 0 1 0 0 4.18 2.09 2.09 0 0 0 2.09-2.09m0 0"/><path fill="none" stroke="#7f7f7f" stroke-miterlimit="10" stroke-width=".7886554100000001" d="M22.383 27.246c5.176 0 1.199 12.758 7.226 13.82"/><path fill="#7f7f7f" stroke="#7f7f7f" stroke-miterlimit="10" stroke-width=".33248208" d="m21.43 27.246 1.304.988-.433-.988.433-.984Zm0 0"/><path fill="#7f7f7f" stroke="#7f7f7f" stroke-miterlimit="10" stroke-width=".08311968" d="m29.723 41.086-.133-.059.043.043-.055.028Zm0 0"/><path fill="#7f7f7f" stroke="#7f7f7f" stroke-miterlimit="10" stroke-width=".33247200000000005" d="m27.996 40.242-.45-1.574-.245 1.047-.942.531Zm0 0"/><path fill="none" stroke="#7f7f7f" stroke-miterlimit="10" stroke-width=".7886554100000001" d="M22.383 55.297c5.176 0 1.199-12.758 7.226-13.82"/><path fill="#7f7f7f" stroke="#7f7f7f" stroke-miterlimit="10" stroke-width=".33248208" d="m21.43 55.297 1.304.984-.433-.984.433-.988Zm0 0"/><path fill="#7f7f7f" stroke="#7f7f7f" stroke-miterlimit="10" stroke-width=".08311968" d="m29.723 41.457-.145-.012.055.028-.043.043Zm0 0"/><path fill="#7f7f7f" stroke="#7f7f7f" stroke-miterlimit="10" stroke-width=".33247200000000005" d="m27.996 42.3-1.637-.003.942.531.246 1.047Zm0 0"/><path fill="none" stroke="#7f7f7f" stroke-miterlimit="10" stroke-width=".7886554100000001" d="M32.898 41.273h8.504"/><path fill="#7f7f7f" stroke="#7f7f7f" stroke-miterlimit="10" stroke-width=".33248208" d="m31.945 41.273 1.305.985-.434-.985.434-.988ZM42.36 41.273l-1.305-.988.433.988-.433.985Zm0 0"/></svg>